<?xml version="1.0" standalone="no"?>
<!DOCTYPE svg PUBLIC "-//W3C//DTD SVG 1.1//EN" "http://www.w3.org/Graphics/SVG/1.1/DTD/svg11.dtd" >
<svg xmlns="http://www.w3.org/2000/svg" width="100%" height="100%">
<metadata>
Created by FontXChange 20110222 at Wed Aug 21 11:29:29 2013
 By Henry Ho
 The digitally encoded machine readable software for producing the Typefaces licensed to you is copyrighted (c) 1989 Adobe Systems. All Rights Reserved. This software is the property of Adobe Systems Incorporated and its licensors, and may not be reproduced, used,  displayed, modified, disclosed or transferred without the express  written approval of Adobe.  The digitally encoded machine readable outline data for producing the Typefaces licensed to you is copyrighted (c) 1981 Linotype AG and/or its subsidiaries. All Rights Reserved. This data is the property of Linotype AG and/or its subsidiaries and may not be reproduced, used, displayed, modified, disclosed or  transferred without the express written approval of Linotype AG  and/or its subsidiaries. 
</metadata>
<defs>
<font id="VAGRounded-Black" horiz-adv-x="556" >
  <font-face 
    font-family="VAGRounded"
    font-weight="900"
    font-stretch="normal"
    units-per-em="1000"
    panose-1="2 0 10 3 0 0 0 0 0 0"
    ascent="800"
    descent="-200"
    x-height="532"
    cap-height="718"
    bbox="-173 -222 1066 957"
    underline-thickness="50"
    underline-position="-100"
    unicode-range="U+0020-FB02"
  />
    <missing-glyph />
    <glyph glyph-name="A" unicode="A" horiz-adv-x="630" 
d="M23 562l156 -421c29 -79 54 -147 135 -147c83 0 108 68 137 147l156 421c21 57 24 76 24 100c0 40 -32 66 -78 66c-53 0 -70 -34 -85 -79l-20 -64h-266l-20 64c-15 45 -32 79 -85 79c-46 0 -78 -26 -78 -66c0 -24 3 -43 24 -100zM400 435l-81 -261h-2l-87 261h170z" />
    <glyph glyph-name="AE" unicode="&#xc6;" horiz-adv-x="852" 
d="M21 145l291 495c38 66 66 72 138 72h306c51 0 81 -30 81 -75c0 -47 -30 -75 -81 -75h-167v-129h153c51 0 81 -29 81 -75s-30 -75 -81 -75h-153v-133h174c51 0 81 -28 81 -75c0 -45 -30 -75 -81 -75h-255c-42 0 -81 29 -81 81v56h-227l-31 -62c-24 -49 -39 -81 -99 -81
c-41 0 -71 30 -71 79c0 32 12 55 22 72zM427 287v273h-2l-144 -273h146z" />
    <glyph glyph-name="Aacute" unicode="&#xc1;" horiz-adv-x="630" 
d="M23 160l156 421c29 79 54 147 135 147c83 0 108 -68 137 -147l156 -421c21 -57 24 -76 24 -100c0 -40 -32 -66 -78 -66c-53 0 -70 34 -85 79l-20 64h-266l-20 -64c-15 -45 -32 -79 -85 -79c-46 0 -78 26 -78 66c0 24 3 43 24 100zM400 287l-81 261h-2l-87 -261h170z
M457 833l-150 -65c-9 -4 -26 -9 -41 -9c-40 0 -65 31 -65 69c0 27 14 46 37 55l150 65c9 4 26 9 41 9c40 0 65 -31 65 -69c0 -27 -14 -46 -37 -55z" />
    <glyph glyph-name="Acircumflex" unicode="&#xc2;" horiz-adv-x="630" 
d="M23 160l156 421c29 79 54 147 135 147c83 0 108 -68 137 -147l156 -421c21 -57 24 -76 24 -100c0 -40 -32 -66 -78 -66c-53 0 -70 34 -85 79l-20 64h-266l-20 -64c-15 -45 -32 -79 -85 -79c-46 0 -78 26 -78 66c0 24 3 43 24 100zM400 287l-81 261h-2l-87 -261h170z
M315 818l-96 -44c-18 -8 -33 -15 -54 -15c-27 0 -53 26 -53 60c0 42 14 58 53 76l88 40c16 7 47 22 62 22s46 -15 62 -22l88 -40c39 -18 53 -34 53 -76c0 -34 -26 -60 -53 -60c-21 0 -36 7 -54 15z" />
    <glyph glyph-name="Adieresis" unicode="&#xc4;" horiz-adv-x="630" 
d="M23 160l156 421c29 79 54 147 135 147c83 0 108 -68 137 -147l156 -421c21 -57 24 -76 24 -100c0 -40 -32 -66 -78 -66c-53 0 -70 34 -85 79l-20 64h-266l-20 -64c-15 -45 -32 -79 -85 -79c-46 0 -78 26 -78 66c0 24 3 43 24 100zM400 287l-81 261h-2l-87 -261h170z
M431 936c43 0 78 -35 78 -78s-35 -78 -78 -78s-78 35 -78 78s35 78 78 78zM199 936c43 0 78 -35 78 -78s-35 -78 -78 -78s-78 35 -78 78s35 78 78 78z" />
    <glyph glyph-name="Agrave" unicode="&#xc0;" horiz-adv-x="630" 
d="M23 160l156 421c29 79 54 147 135 147c83 0 108 -68 137 -147l156 -421c21 -57 24 -76 24 -100c0 -40 -32 -66 -78 -66c-53 0 -70 34 -85 79l-20 64h-266l-20 -64c-15 -45 -32 -79 -85 -79c-46 0 -78 26 -78 66c0 24 3 43 24 100zM400 287l-81 261h-2l-87 -261h170z
M242 948l150 -65c23 -9 37 -28 37 -55c0 -38 -25 -69 -65 -69c-15 0 -32 5 -41 9l-150 65c-23 9 -37 28 -37 55c0 38 25 69 65 69c15 0 32 -5 41 -9z" />
    <glyph glyph-name="Aring" unicode="&#xc5;" horiz-adv-x="630" 
d="M23 160l156 421c29 79 54 147 135 147c83 0 108 -68 137 -147l156 -421c21 -57 24 -76 24 -100c0 -40 -32 -66 -78 -66c-53 0 -70 34 -85 79l-20 64h-266l-20 -64c-15 -45 -32 -79 -85 -79c-46 0 -78 26 -78 66c0 24 3 43 24 100zM400 287l-81 261h-2l-87 -261h170z
M216 847c0 54 45 99 99 99s99 -45 99 -99s-45 -99 -99 -99s-99 45 -99 99zM270 847c0 -24 21 -45 45 -45s45 21 45 45s-21 45 -45 45s-45 -21 -45 -45z" />
    <glyph glyph-name="Atilde" unicode="&#xc3;" horiz-adv-x="630" 
d="M23 160l156 421c29 79 54 147 135 147c83 0 108 -68 137 -147l156 -421c21 -57 24 -76 24 -100c0 -40 -32 -66 -78 -66c-53 0 -70 34 -85 79l-20 64h-266l-20 -64c-15 -45 -32 -79 -85 -79c-46 0 -78 26 -78 66c0 24 3 43 24 100zM400 287l-81 261h-2l-87 -261h170z
M102 823c0 53 46 109 101 109c75 0 137 -47 179 -47c40 0 49 47 88 47c37 0 58 -30 58 -64c0 -53 -46 -109 -101 -109c-75 0 -137 47 -179 47c-40 0 -49 -47 -88 -47c-37 0 -58 30 -58 64z" />
    <glyph glyph-name="B" unicode="B" horiz-adv-x="593" 
d="M201 568v-134h74c46 0 74 23 74 67s-27 67 -74 67h-74zM39 81v550c0 52 39 81 81 81h191c123 0 200 -76 200 -186c0 -73 -51 -116 -85 -136c87 -17 143 -86 143 -175c0 -113 -73 -215 -248 -215h-201c-42 0 -81 29 -81 81zM201 290v-146h102c54 0 98 19 98 73
s-50 73 -98 73h-102z" />
    <glyph glyph-name="C" unicode="C" horiz-adv-x="593" 
d="M21 356c0 216 139 372 353 372c98 0 215 -28 215 -113c0 -39 -28 -77 -70 -77c-38 0 -78 34 -141 34c-131 0 -183 -106 -183 -216c0 -113 58 -210 169 -210c101 0 117 33 159 33c64 0 72 -54 72 -75c0 -89 -135 -120 -224 -120c-224 0 -350 168 -350 372z" />
    <glyph glyph-name="Ccedilla" unicode="&#xc7;" horiz-adv-x="593" 
d="M21 356c0 216 139 372 353 372c98 0 215 -28 215 -113c0 -39 -28 -77 -70 -77c-38 0 -78 34 -141 34c-131 0 -183 -106 -183 -216c0 -113 58 -210 169 -210c101 0 117 33 159 33c64 0 72 -54 72 -75c0 -89 -135 -120 -224 -120c-224 0 -350 168 -350 372zM369 0l-39 -52
c8 1 16 1 24 1c45 0 80 -29 80 -80c0 -62 -73 -91 -125 -91c-29 0 -100 5 -100 47c0 15 11 34 27 34c21 0 35 -15 56 -15c18 0 34 12 34 32s-18 28 -31 28h-20c-12 0 -23 11 -23 23c0 16 17 36 27 48l21 25h69z" />
    <glyph glyph-name="D" unicode="D" horiz-adv-x="667" 
d="M201 562v-412h86c126 0 185 87 185 211c0 120 -60 201 -178 201h-93zM39 81v550c0 52 39 81 81 81h194c212 0 332 -168 332 -351c0 -233 -156 -361 -332 -361h-194c-42 0 -81 29 -81 81z" />
    <glyph glyph-name="E" unicode="E" horiz-adv-x="463" 
d="M39 81v550c0 52 39 81 81 81h248c51 0 81 -30 81 -75c0 -47 -30 -75 -81 -75h-167v-129h153c51 0 81 -29 81 -75s-30 -75 -81 -75h-153v-133h173c51 0 81 -28 81 -75c0 -45 -30 -75 -81 -75h-254c-42 0 -81 29 -81 81z" />
    <glyph glyph-name="Eacute" unicode="&#xc9;" horiz-adv-x="463" 
d="M39 81v550c0 52 39 81 81 81h248c51 0 81 -30 81 -75c0 -47 -30 -75 -81 -75h-167v-129h153c51 0 81 -29 81 -75s-30 -75 -81 -75h-153v-133h173c51 0 81 -28 81 -75c0 -45 -30 -75 -81 -75h-254c-42 0 -81 29 -81 81zM374 833l-150 -65c-9 -4 -26 -9 -41 -9
c-40 0 -65 31 -65 69c0 27 14 46 37 55l150 65c9 4 26 9 41 9c40 0 65 -31 65 -69c0 -27 -14 -46 -37 -55z" />
    <glyph glyph-name="Ecircumflex" unicode="&#xca;" horiz-adv-x="463" 
d="M39 81v550c0 52 39 81 81 81h248c51 0 81 -30 81 -75c0 -47 -30 -75 -81 -75h-167v-129h153c51 0 81 -29 81 -75s-30 -75 -81 -75h-153v-133h173c51 0 81 -28 81 -75c0 -45 -30 -75 -81 -75h-254c-42 0 -81 29 -81 81zM232 818l-96 -44c-18 -8 -33 -15 -54 -15
c-27 0 -53 26 -53 60c0 42 14 58 53 76l88 40c16 7 47 22 62 22s46 -15 62 -22l88 -40c39 -18 53 -34 53 -76c0 -34 -26 -60 -53 -60c-21 0 -36 7 -54 15z" />
    <glyph glyph-name="Edieresis" unicode="&#xcb;" horiz-adv-x="463" 
d="M39 81v550c0 52 39 81 81 81h248c51 0 81 -30 81 -75c0 -47 -30 -75 -81 -75h-167v-129h153c51 0 81 -29 81 -75s-30 -75 -81 -75h-153v-133h173c51 0 81 -28 81 -75c0 -45 -30 -75 -81 -75h-254c-42 0 -81 29 -81 81zM348 936c43 0 78 -35 78 -78s-35 -78 -78 -78
s-78 35 -78 78s35 78 78 78zM116 936c43 0 78 -35 78 -78s-35 -78 -78 -78s-78 35 -78 78s35 78 78 78z" />
    <glyph glyph-name="Egrave" unicode="&#xc8;" horiz-adv-x="463" 
d="M39 81v550c0 52 39 81 81 81h248c51 0 81 -30 81 -75c0 -47 -30 -75 -81 -75h-167v-129h153c51 0 81 -29 81 -75s-30 -75 -81 -75h-153v-133h173c51 0 81 -28 81 -75c0 -45 -30 -75 -81 -75h-254c-42 0 -81 29 -81 81zM159 948l150 -65c23 -9 37 -28 37 -55
c0 -38 -25 -69 -65 -69c-15 0 -32 5 -41 9l-150 65c-23 9 -37 28 -37 55c0 38 25 69 65 69c15 0 32 -5 41 -9z" />
    <glyph glyph-name="Eth" unicode="&#xd0;" horiz-adv-x="667" 
d="M39 81v217h-27c-39 0 -63 25 -63 63s24 63 63 63h27v207c0 52 39 81 81 81h194c212 0 332 -168 332 -351c0 -233 -156 -361 -332 -361h-194c-42 0 -81 29 -81 81zM201 562v-138h82c40 0 63 -25 63 -63s-23 -63 -63 -63h-82v-148h86c126 0 185 87 185 211
c0 120 -60 201 -178 201h-93z" />
    <glyph glyph-name="F" unicode="F" horiz-adv-x="444" 
d="M39 80v551c0 52 39 81 81 81h248c51 0 81 -30 81 -75c0 -47 -30 -75 -81 -75h-167v-127h146c51 0 81 -29 81 -75s-30 -75 -81 -75h-146v-205c0 -57 -34 -86 -81 -86s-81 29 -81 86z" />
    <glyph glyph-name="G" unicode="G" horiz-adv-x="722" 
d="M434 422h175c56 0 86 -32 86 -99c0 -191 -126 -339 -324 -339c-224 0 -350 168 -350 372c0 216 149 372 350 372c134 0 276 -56 276 -156c0 -40 -28 -68 -73 -68c-59 0 -87 74 -196 74c-113 0 -183 -98 -183 -222c0 -110 54 -222 180 -222c85 0 144 55 152 138h-93
c-51 0 -81 30 -81 75c0 47 30 75 81 75z" />
    <glyph glyph-name="H" unicode="H" horiz-adv-x="704" 
d="M201 290v-210c0 -57 -34 -86 -81 -86s-81 29 -81 86v552c0 57 34 86 81 86s81 -29 81 -86v-192h302v192c0 57 34 86 81 86s81 -29 81 -86v-552c0 -57 -34 -86 -81 -86s-81 29 -81 86v210h-302z" />
    <glyph glyph-name="I" unicode="I" horiz-adv-x="240" 
d="M201 632v-552c0 -57 -34 -86 -81 -86s-81 29 -81 86v552c0 57 34 86 81 86s81 -29 81 -86z" />
    <glyph glyph-name="Iacute" unicode="&#xcd;" horiz-adv-x="240" 
d="M201 632v-552c0 -57 -34 -86 -81 -86s-81 29 -81 86v552c0 57 34 86 81 86s81 -29 81 -86zM262 833l-150 -65c-9 -4 -26 -9 -41 -9c-40 0 -65 31 -65 69c0 27 14 46 37 55l150 65c9 4 26 9 41 9c40 0 65 -31 65 -69c0 -27 -14 -46 -37 -55z" />
    <glyph glyph-name="Icircumflex" unicode="&#xce;" horiz-adv-x="240" 
d="M201 632v-552c0 -57 -34 -86 -81 -86s-81 29 -81 86v552c0 57 34 86 81 86s81 -29 81 -86zM120 818l-96 -44c-18 -8 -33 -15 -54 -15c-27 0 -53 26 -53 60c0 42 14 58 53 76l88 40c16 7 47 22 62 22s46 -15 62 -22l88 -40c39 -18 53 -34 53 -76c0 -34 -26 -60 -53 -60
c-21 0 -36 7 -54 15z" />
    <glyph glyph-name="Idieresis" unicode="&#xcf;" horiz-adv-x="240" 
d="M201 632v-552c0 -57 -34 -86 -81 -86s-81 29 -81 86v552c0 57 34 86 81 86s81 -29 81 -86zM236 936c43 0 78 -35 78 -78s-35 -78 -78 -78s-78 35 -78 78s35 78 78 78zM4 936c43 0 78 -35 78 -78s-35 -78 -78 -78s-78 35 -78 78s35 78 78 78z" />
    <glyph glyph-name="Igrave" unicode="&#xcc;" horiz-adv-x="240" 
d="M201 632v-552c0 -57 -34 -86 -81 -86s-81 29 -81 86v552c0 57 34 86 81 86s81 -29 81 -86zM47 948l150 -65c23 -9 37 -28 37 -55c0 -38 -25 -69 -65 -69c-15 0 -32 5 -41 9l-150 65c-23 9 -37 28 -37 55c0 38 25 69 65 69c15 0 32 -5 41 -9z" />
    <glyph glyph-name="J" unicode="J" horiz-adv-x="426" 
d="M225 454v-384c0 -57 34 -86 81 -86s81 29 81 86v412c0 110 -29 236 -215 236c-45 0 -98 -13 -130 -34c-36 -24 -50 -42 -50 -83c0 -39 23 -77 74 -77c40 0 60 38 101 38c42 0 58 -28 58 -108z" />
    <glyph glyph-name="K" unicode="K" horiz-adv-x="593" 
d="M39 80v552c0 57 34 86 81 86s81 -29 81 -86v-198l223 243c32 36 52 41 76 41c36 0 81 -35 81 -78c0 -24 -15 -47 -32 -65l-193 -194l211 -229c25 -27 45 -48 45 -78c0 -52 -40 -80 -85 -80c-43 0 -74 39 -100 68l-226 254v-236c0 -57 -34 -86 -81 -86s-81 29 -81 86z" />
    <glyph glyph-name="L" unicode="L" horiz-adv-x="444" 
d="M39 81v551c0 57 34 86 81 86s81 -29 81 -86v-482h174c51 0 81 -28 81 -75c0 -45 -30 -75 -81 -75h-255c-42 0 -81 29 -81 81z" />
    <glyph glyph-name="Lslash" unicode="&#x141;" horiz-adv-x="444" 
d="M39 81v152c-14 -10 -36 -25 -48 -25c-30 0 -45 23 -45 53c0 27 18 43 42 60l51 37v274c0 57 34 86 81 86s81 -29 81 -86v-156l73 53c14 10 40 29 54 29c30 0 45 -23 45 -53c0 -27 -18 -43 -42 -60l-130 -95v-200h174c51 0 81 -28 81 -75c0 -45 -30 -75 -81 -75h-255
c-42 0 -81 29 -81 81z" />
    <glyph glyph-name="M" unicode="M" horiz-adv-x="870" 
d="M44 462l64 -366c15 -85 66 -102 107 -102c81 0 99 47 140 175l79 245h2l79 -245c41 -128 59 -175 140 -175c41 0 92 17 107 102l64 366c13 74 27 155 27 179c0 36 -28 77 -76 77c-73 0 -86 -52 -94 -107l-48 -316h-2l-109 350c-16 52 -40 73 -89 73s-73 -21 -89 -73
l-109 -350h-2l-48 316c-8 55 -21 107 -94 107c-48 0 -76 -41 -76 -77c0 -24 14 -105 27 -179z" />
    <glyph glyph-name="N" unicode="N" horiz-adv-x="704" 
d="M39 632v-552c0 -57 34 -86 81 -86c43 0 58 19 112 87l269 337h2v-338c0 -57 34 -86 81 -86s81 29 81 86v552c0 57 -34 86 -81 86c-43 0 -59 -19 -112 -87l-269 -337h-2v338c0 57 -34 86 -81 86s-81 -29 -81 -86z" />
    <glyph glyph-name="Ntilde" unicode="&#xd1;" horiz-adv-x="704" 
d="M39 80v552c0 57 34 86 81 86c43 0 58 -19 112 -87l269 -337h2v338c0 57 34 86 81 86s81 -29 81 -86v-552c0 -57 -34 -86 -81 -86c-43 0 -59 19 -112 87l-269 337h-2v-338c0 -57 -34 -86 -81 -86s-81 29 -81 86zM139 823c0 53 46 109 101 109c75 0 137 -47 179 -47
c40 0 49 47 88 47c37 0 58 -30 58 -64c0 -53 -46 -109 -101 -109c-75 0 -137 47 -179 47c-40 0 -49 -47 -88 -47c-37 0 -58 30 -58 64z" />
    <glyph glyph-name="O" unicode="O" horiz-adv-x="742" 
d="M371 728c211 0 350 -146 350 -372s-139 -372 -350 -372s-350 146 -350 372s139 372 350 372zM371 578c-125 0 -176 -109 -176 -222s51 -222 176 -222s176 109 176 222s-51 222 -176 222z" />
    <glyph glyph-name="OE" unicode="&#x152;" horiz-adv-x="963" 
d="M703 562v-129h153c51 0 81 -29 81 -75s-30 -75 -81 -75h-153v-133h171c51 0 81 -28 81 -75c0 -45 -30 -75 -81 -75h-242c-57 0 -74 30 -79 46c-30 -25 -79 -62 -182 -62c-215 0 -350 148 -350 372s135 372 350 372c111 0 148 -30 186 -58c6 19 16 42 65 42h248
c51 0 81 -30 81 -75c0 -47 -30 -75 -81 -75h-167zM371 578c-125 0 -176 -100 -176 -222s51 -222 176 -222c122 0 170 109 170 222c0 100 -29 222 -170 222z" />
    <glyph glyph-name="Oacute" unicode="&#xd3;" horiz-adv-x="742" 
d="M371 728c211 0 350 -146 350 -372s-139 -372 -350 -372s-350 146 -350 372s139 372 350 372zM371 578c-125 0 -176 -109 -176 -222s51 -222 176 -222s176 109 176 222s-51 222 -176 222zM513 833l-150 -65c-9 -4 -26 -9 -41 -9c-40 0 -65 31 -65 69c0 27 14 46 37 55
l150 65c9 4 26 9 41 9c40 0 65 -31 65 -69c0 -27 -14 -46 -37 -55z" />
    <glyph glyph-name="Ocircumflex" unicode="&#xd4;" horiz-adv-x="742" 
d="M371 728c211 0 350 -146 350 -372s-139 -372 -350 -372s-350 146 -350 372s139 372 350 372zM371 578c-125 0 -176 -109 -176 -222s51 -222 176 -222s176 109 176 222s-51 222 -176 222zM371 818l-96 -44c-18 -8 -33 -15 -54 -15c-27 0 -53 26 -53 60c0 42 14 58 53 76
l88 40c16 7 47 22 62 22s46 -15 62 -22l88 -40c39 -18 53 -34 53 -76c0 -34 -26 -60 -53 -60c-21 0 -36 7 -54 15z" />
    <glyph glyph-name="Odieresis" unicode="&#xd6;" horiz-adv-x="742" 
d="M371 728c211 0 350 -146 350 -372s-139 -372 -350 -372s-350 146 -350 372s139 372 350 372zM371 578c-125 0 -176 -109 -176 -222s51 -222 176 -222s176 109 176 222s-51 222 -176 222zM487 936c43 0 78 -35 78 -78s-35 -78 -78 -78s-78 35 -78 78s35 78 78 78zM255 936
c43 0 78 -35 78 -78s-35 -78 -78 -78s-78 35 -78 78s35 78 78 78z" />
    <glyph glyph-name="Ograve" unicode="&#xd2;" horiz-adv-x="742" 
d="M371 728c211 0 350 -146 350 -372s-139 -372 -350 -372s-350 146 -350 372s139 372 350 372zM371 578c-125 0 -176 -109 -176 -222s51 -222 176 -222s176 109 176 222s-51 222 -176 222zM298 948l150 -65c23 -9 37 -28 37 -55c0 -38 -25 -69 -65 -69c-15 0 -32 5 -41 9
l-150 65c-23 9 -37 28 -37 55c0 38 25 69 65 69c15 0 32 -5 41 -9z" />
    <glyph glyph-name="Oslash" unicode="&#xd8;" horiz-adv-x="742" 
d="M213 251l263 291c-27 23 -61 36 -105 36c-125 0 -176 -109 -176 -222c0 -36 5 -72 18 -105zM529 463l-264 -292c26 -23 61 -37 106 -37c125 0 176 109 176 222c0 38 -6 75 -18 107zM30 50l61 67c-45 62 -70 143 -70 239c0 226 139 372 350 372c84 0 157 -23 214 -66
l62 69c13 15 26 25 42 25c27 0 47 -17 47 -41c0 -23 -12 -37 -24 -50l-62 -68c45 -62 71 -144 71 -241c0 -226 -139 -372 -350 -372c-85 0 -159 24 -215 67l-61 -67c-13 -15 -26 -25 -42 -25c-27 0 -47 17 -47 41c0 23 12 37 24 50z" />
    <glyph glyph-name="Otilde" unicode="&#xd5;" horiz-adv-x="742" 
d="M371 728c211 0 350 -146 350 -372s-139 -372 -350 -372s-350 146 -350 372s139 372 350 372zM371 578c-125 0 -176 -109 -176 -222s51 -222 176 -222s176 109 176 222s-51 222 -176 222zM158 823c0 53 46 109 101 109c75 0 137 -47 179 -47c40 0 49 47 88 47
c37 0 58 -30 58 -64c0 -53 -46 -109 -101 -109c-75 0 -137 47 -179 47c-40 0 -49 -47 -88 -47c-37 0 -58 30 -58 64z" />
    <glyph glyph-name="P" unicode="P" horiz-adv-x="574" 
d="M201 568v-195h87c69 0 107 47 107 97c0 64 -43 98 -107 98h-87zM39 80v551c0 52 39 81 81 81h199c125 0 244 -81 244 -242c0 -139 -85 -241 -239 -241h-123v-149c0 -57 -34 -86 -81 -86s-81 29 -81 86z" />
    <glyph glyph-name="Q" unicode="Q" horiz-adv-x="742" 
d="M593 -10l-43 38c-50 -29 -111 -44 -179 -44c-211 0 -350 146 -350 372s139 372 350 372s350 -146 350 -372c0 -91 -22 -169 -64 -230l39 -34c44 -38 52 -54 52 -79c0 -40 -29 -69 -67 -69c-27 0 -45 8 -88 46zM371 578c-125 0 -176 -109 -176 -222s51 -222 176 -222
c18 0 35 2 49 7l-2 1c-44 38 -52 54 -52 79c0 40 29 69 67 69c27 0 45 -8 88 -46l5 -4c14 35 21 75 21 116c0 113 -51 222 -176 222z" />
    <glyph glyph-name="R" unicode="R" horiz-adv-x="574" 
d="M39 80v551c0 52 39 81 81 81h195c144 0 238 -88 238 -221c0 -105 -64 -181 -166 -200l141 -152c22 -24 34 -43 34 -70c0 -23 -21 -75 -83 -75c-42 0 -57 15 -77 40l-199 251h-2v-205c0 -57 -34 -86 -81 -86s-81 29 -81 86zM201 562v-157h107c53 0 83 35 83 80
c0 48 -37 77 -83 77h-107z" />
    <glyph glyph-name="S" unicode="S" horiz-adv-x="537" 
d="M5 101c0 44 27 86 76 86c40 0 92 -41 175 -41c63 0 86 32 86 67c0 54 -62 65 -154 95c-84 27 -171 63 -171 192c0 155 121 228 256 228c130 0 202 -45 202 -107c0 -44 -29 -76 -72 -76c-52 0 -69 27 -138 27c-44 0 -74 -23 -74 -58c0 -41 40 -46 152 -83
c88 -29 173 -74 173 -209c0 -164 -121 -238 -272 -238c-95 0 -239 37 -239 117z" />
    <glyph glyph-name="Scaron" unicode="&#x160;" horiz-adv-x="537" 
d="M5 101c0 44 27 86 76 86c40 0 92 -41 175 -41c63 0 86 32 86 67c0 54 -62 65 -154 95c-84 27 -171 63 -171 192c0 155 121 228 256 228c130 0 202 -45 202 -107c0 -44 -29 -76 -72 -76c-52 0 -69 27 -138 27c-44 0 -74 -23 -74 -58c0 -41 40 -46 152 -83
c88 -29 173 -74 173 -209c0 -164 -121 -238 -272 -238c-95 0 -239 37 -239 117zM269 898l96 44c18 8 33 15 54 15c27 0 53 -26 53 -60c0 -42 -14 -58 -53 -76l-88 -40c-16 -7 -47 -22 -62 -22s-46 15 -62 22l-88 40c-39 18 -53 34 -53 76c0 34 26 60 53 60
c21 0 36 -7 54 -15z" />
    <glyph glyph-name="T" unicode="T" horiz-adv-x="464" 
d="M151 626v-482h-91c-54 0 -84 -30 -84 -75c0 -47 30 -75 84 -75h344c54 0 84 28 84 75c0 45 -30 75 -84 75h-91v482c0 57 -34 86 -81 86s-81 -29 -81 -86z" />
    <glyph glyph-name="Thorn" unicode="&#xde;" horiz-adv-x="574" 
d="M201 462v-194h87c69 0 107 47 107 97c0 64 -43 97 -107 97h-87zM39 80v552c0 59 34 86 81 86s81 -27 81 -86v-26h118c125 0 244 -81 244 -241c0 -138 -85 -241 -239 -241h-123v-44c0 -59 -34 -86 -81 -86s-81 27 -81 86z" />
    <glyph glyph-name="U" unicode="U" horiz-adv-x="685" 
d="M196 632v-346c0 -95 66 -146 146 -146s147 51 147 146v346c0 57 34 86 81 86s81 -29 81 -86v-346c0 -188 -129 -302 -309 -302s-308 114 -308 302v346c0 57 34 86 81 86s81 -29 81 -86z" />
    <glyph glyph-name="Uacute" unicode="&#xda;" horiz-adv-x="685" 
d="M196 632v-346c0 -95 66 -146 146 -146s147 51 147 146v346c0 57 34 86 81 86s81 -29 81 -86v-346c0 -188 -129 -302 -309 -302s-308 114 -308 302v346c0 57 34 86 81 86s81 -29 81 -86zM485 833l-150 -65c-9 -4 -26 -9 -41 -9c-40 0 -65 31 -65 69c0 27 14 46 37 55
l150 65c9 4 26 9 41 9c40 0 65 -31 65 -69c0 -27 -14 -46 -37 -55z" />
    <glyph glyph-name="Ucircumflex" unicode="&#xdb;" horiz-adv-x="685" 
d="M196 632v-346c0 -95 66 -146 146 -146s147 51 147 146v346c0 57 34 86 81 86s81 -29 81 -86v-346c0 -188 -129 -302 -309 -302s-308 114 -308 302v346c0 57 34 86 81 86s81 -29 81 -86zM343 818l-96 -44c-18 -8 -33 -15 -54 -15c-27 0 -53 26 -53 60c0 42 14 58 53 76
l88 40c16 7 47 22 62 22s46 -15 62 -22l88 -40c39 -18 53 -34 53 -76c0 -34 -26 -60 -53 -60c-21 0 -36 7 -54 15z" />
    <glyph glyph-name="Udieresis" unicode="&#xdc;" horiz-adv-x="685" 
d="M196 632v-346c0 -95 66 -146 146 -146s147 51 147 146v346c0 57 34 86 81 86s81 -29 81 -86v-346c0 -188 -129 -302 -309 -302s-308 114 -308 302v346c0 57 34 86 81 86s81 -29 81 -86zM459 936c43 0 78 -35 78 -78s-35 -78 -78 -78s-78 35 -78 78s35 78 78 78zM227 936
c43 0 78 -35 78 -78s-35 -78 -78 -78s-78 35 -78 78s35 78 78 78z" />
    <glyph glyph-name="Ugrave" unicode="&#xd9;" horiz-adv-x="685" 
d="M196 632v-346c0 -95 66 -146 146 -146s147 51 147 146v346c0 57 34 86 81 86s81 -29 81 -86v-346c0 -188 -129 -302 -309 -302s-308 114 -308 302v346c0 57 34 86 81 86s81 -29 81 -86zM270 948l150 -65c23 -9 37 -28 37 -55c0 -38 -25 -69 -65 -69c-15 0 -32 5 -41 9
l-150 65c-23 9 -37 28 -37 55c0 38 25 69 65 69c15 0 32 -5 41 -9z" />
    <glyph glyph-name="V" unicode="V" horiz-adv-x="574" 
d="M287 431l138 -364c15 -37 29 -73 90 -73c47 0 79 38 79 79c0 15 -12 47 -17 59l-202 500c-16 40 -30 86 -90 86s-74 -46 -90 -86l-198 -500c-5 -12 -17 -44 -17 -59c0 -41 32 -79 79 -79c61 0 75 36 90 73z" />
    <glyph glyph-name="W" unicode="W" horiz-adv-x="908" 
d="M120 115l-108 441c-5 21 -16 56 -16 83c0 43 32 79 81 79c53 0 75 -32 84 -72l83 -384h2l117 373c20 62 48 83 91 83s71 -21 91 -83l117 -373h2l83 384c9 40 31 72 84 72c49 0 81 -36 81 -79c0 -27 -11 -62 -16 -83l-108 -441c-19 -78 -36 -121 -114 -121
c-62 0 -96 31 -115 89l-104 326h-2l-104 -326c-19 -58 -53 -89 -115 -89c-78 0 -95 43 -114 121z" />
    <glyph glyph-name="X" unicode="X" horiz-adv-x="612" 
d="M306 518l91 126c28 40 50 74 94 74c57 0 85 -39 85 -75c0 -27 -12 -48 -30 -72l-142 -188l173 -232c26 -35 35 -47 35 -78c0 -46 -34 -79 -79 -79c-29 0 -51 10 -79 48l-148 202l-148 -202c-28 -38 -50 -48 -79 -48c-45 0 -79 33 -79 79c0 31 9 43 35 78l173 232
l-142 188c-18 24 -30 45 -30 72c0 36 28 75 85 75c44 0 66 -34 94 -74z" />
    <glyph glyph-name="Y" unicode="Y" horiz-adv-x="538" 
d="M188 80v254l-140 188c-51 71 -67 91 -67 124c0 43 38 72 86 72c44 0 65 -31 82 -55l120 -171l120 171c17 24 38 55 82 55c48 0 86 -29 86 -72c0 -33 -16 -53 -67 -124l-140 -188v-254c0 -57 -34 -86 -81 -86s-81 29 -81 86z" />
    <glyph glyph-name="Yacute" unicode="&#xdd;" horiz-adv-x="538" 
d="M188 80v254l-140 188c-51 71 -67 91 -67 124c0 43 38 72 86 72c44 0 65 -31 82 -55l120 -171l120 171c17 24 38 55 82 55c48 0 86 -29 86 -72c0 -33 -16 -53 -67 -124l-140 -188v-254c0 -57 -34 -86 -81 -86s-81 29 -81 86zM411 833l-150 -65c-9 -4 -26 -9 -41 -9
c-40 0 -65 31 -65 69c0 27 14 46 37 55l150 65c9 4 26 9 41 9c40 0 65 -31 65 -69c0 -27 -14 -46 -37 -55z" />
    <glyph glyph-name="Ydieresis" unicode="&#x178;" horiz-adv-x="538" 
d="M188 80v254l-140 188c-51 71 -67 91 -67 124c0 43 38 72 86 72c44 0 65 -31 82 -55l120 -171l120 171c17 24 38 55 82 55c48 0 86 -29 86 -72c0 -33 -16 -53 -67 -124l-140 -188v-254c0 -57 -34 -86 -81 -86s-81 29 -81 86zM385 936c43 0 78 -35 78 -78s-35 -78 -78 -78
s-78 35 -78 78s35 78 78 78zM153 936c43 0 78 -35 78 -78s-35 -78 -78 -78s-78 35 -78 78s35 78 78 78z" />
    <glyph glyph-name="Z" unicode="Z" horiz-adv-x="537" 
d="M198 562h264c56 0 86 30 86 75s-30 75 -86 75h-359c-87 0 -114 -36 -114 -89c0 -28 11 -45 30 -71l306 -408h-239c-56 0 -86 -30 -86 -72s30 -72 86 -72h348c86 0 99 53 99 81c0 34 -30 75 -76 136z" />
    <glyph glyph-name="Zcaron" unicode="&#x17d;" horiz-adv-x="537" 
d="M198 150h264c56 0 86 -30 86 -75s-30 -75 -86 -75h-359c-87 0 -114 36 -114 89c0 28 11 45 30 71l306 408h-239c-56 0 -86 30 -86 72s30 72 86 72h348c86 0 99 -53 99 -81c0 -34 -30 -75 -76 -136zM269 898l96 44c18 8 33 15 54 15c27 0 53 -26 53 -60
c0 -42 -14 -58 -53 -76l-88 -40c-16 -7 -47 -22 -62 -22s-46 15 -62 22l-88 40c-39 18 -53 34 -53 76c0 34 26 60 53 60c21 0 36 -7 54 -15z" />
    <glyph glyph-name="a" unicode="a" horiz-adv-x="574" 
d="M541 457v-382c0 -45 -32 -81 -78 -81c-38 0 -62 26 -73 50c-35 -43 -75 -60 -134 -60c-136 0 -241 125 -241 282s105 282 241 282c59 0 99 -17 134 -60c11 24 35 50 73 50c46 0 78 -36 78 -81zM278 398c-69 0 -107 -60 -107 -132s38 -132 107 -132s107 60 107 132
s-38 132 -107 132z" />
    <glyph glyph-name="aacute" unicode="&#xe1;" horiz-adv-x="574" 
d="M541 457v-382c0 -45 -32 -81 -78 -81c-38 0 -62 26 -73 50c-35 -43 -75 -60 -134 -60c-136 0 -241 125 -241 282s105 282 241 282c59 0 99 -17 134 -60c11 24 35 50 73 50c46 0 78 -36 78 -81zM278 398c-69 0 -107 -60 -107 -132s38 -132 107 -132s107 60 107 132
s-38 132 -107 132zM429 667l-150 -65c-9 -4 -26 -9 -41 -9c-40 0 -65 31 -65 69c0 27 14 46 37 55l150 65c9 4 26 9 41 9c40 0 65 -31 65 -69c0 -27 -14 -46 -37 -55z" />
    <glyph glyph-name="acircumflex" unicode="&#xe2;" horiz-adv-x="574" 
d="M541 457v-382c0 -45 -32 -81 -78 -81c-38 0 -62 26 -73 50c-35 -43 -75 -60 -134 -60c-136 0 -241 125 -241 282s105 282 241 282c59 0 99 -17 134 -60c11 24 35 50 73 50c46 0 78 -36 78 -81zM278 398c-69 0 -107 -60 -107 -132s38 -132 107 -132s107 60 107 132
s-38 132 -107 132zM287 652l-96 -44c-18 -8 -33 -15 -54 -15c-27 0 -53 26 -53 60c0 42 14 58 53 76l88 40c16 7 47 22 62 22s46 -15 62 -22l88 -40c39 -18 53 -34 53 -76c0 -34 -26 -60 -53 -60c-21 0 -36 7 -54 15z" />
    <glyph glyph-name="acute" unicode="&#xb4;" horiz-adv-x="222" 
d="M253 667l-150 -65c-9 -4 -26 -9 -41 -9c-40 0 -65 31 -65 69c0 27 14 46 37 55l150 65c9 4 26 9 41 9c40 0 65 -31 65 -69c0 -27 -14 -46 -37 -55z" />
    <glyph glyph-name="adieresis" unicode="&#xe4;" horiz-adv-x="574" 
d="M541 457v-382c0 -45 -32 -81 -78 -81c-38 0 -62 26 -73 50c-35 -43 -75 -60 -134 -60c-136 0 -241 125 -241 282s105 282 241 282c59 0 99 -17 134 -60c11 24 35 50 73 50c46 0 78 -36 78 -81zM278 398c-69 0 -107 -60 -107 -132s38 -132 107 -132s107 60 107 132
s-38 132 -107 132zM403 770c43 0 78 -35 78 -78s-35 -78 -78 -78s-78 35 -78 78s35 78 78 78zM171 770c43 0 78 -35 78 -78s-35 -78 -78 -78s-78 35 -78 78s35 78 78 78z" />
    <glyph glyph-name="ae" unicode="&#xe6;" horiz-adv-x="926" 
d="M541 322h214c0 35 -40 94 -107 94s-107 -59 -107 -94zM835 215h-294c0 -33 37 -87 137 -87c77 0 124 49 160 49c35 0 65 -27 65 -67c0 -76 -127 -126 -245 -126c-65 0 -114 15 -145 36c-9 -17 -23 -36 -58 -36c-50 0 -65 26 -65 60h-2c-33 -43 -73 -60 -132 -60
c-136 0 -241 125 -241 282s105 282 241 282c59 0 99 -17 132 -60h2c0 33 17 60 67 60c31 0 50 -19 58 -36c23 17 64 36 143 36c154 0 253 -129 253 -265c0 -55 -26 -68 -76 -68zM278 398c-69 0 -107 -60 -107 -132s38 -132 107 -132s107 60 107 132s-38 132 -107 132z" />
    <glyph glyph-name="agrave" unicode="&#xe0;" horiz-adv-x="574" 
d="M541 457v-382c0 -45 -32 -81 -78 -81c-38 0 -62 26 -73 50c-35 -43 -75 -60 -134 -60c-136 0 -241 125 -241 282s105 282 241 282c59 0 99 -17 134 -60c11 24 35 50 73 50c46 0 78 -36 78 -81zM278 398c-69 0 -107 -60 -107 -132s38 -132 107 -132s107 60 107 132
s-38 132 -107 132zM214 782l150 -65c23 -9 37 -28 37 -55c0 -38 -25 -69 -65 -69c-15 0 -32 5 -41 9l-150 65c-23 9 -37 28 -37 55c0 38 25 69 65 69c15 0 32 -5 41 -9z" />
    <glyph glyph-name="ampersand" unicode="&#x26;" horiz-adv-x="704" 
d="M405 373l101 -117l39 48c20 25 39 50 68 48c34 0 71 -33 71 -68c0 -29 -24 -56 -55 -88l-36 -37l30 -34c18 -20 35 -38 35 -61c0 -42 -39 -70 -78 -70c-30 -1 -42 12 -64 38l-29 33c-71 -59 -140 -81 -235 -81c-125 0 -232 81 -232 212c0 110 70 168 161 214
c-37 42 -67 79 -67 138c0 107 90 172 203 172c106 0 210 -46 210 -171c0 -79 -55 -139 -122 -176zM400 162l-134 149c-59 -35 -90 -66 -90 -109c0 -53 40 -92 96 -92c54 0 93 22 128 52zM323 612c-33 0 -65 -24 -65 -61c0 -30 14 -52 59 -90c61 28 78 56 78 84
c0 43 -31 67 -72 67z" />
    <glyph glyph-name="aring" unicode="&#xe5;" horiz-adv-x="574" 
d="M541 457v-382c0 -45 -32 -81 -78 -81c-38 0 -62 26 -73 50c-35 -43 -75 -60 -134 -60c-136 0 -241 125 -241 282s105 282 241 282c59 0 99 -17 134 -60c11 24 35 50 73 50c46 0 78 -36 78 -81zM278 398c-69 0 -107 -60 -107 -132s38 -132 107 -132s107 60 107 132
s-38 132 -107 132zM188 667c0 54 45 99 99 99s99 -45 99 -99s-45 -99 -99 -99s-99 45 -99 99zM242 667c0 -24 21 -45 45 -45s45 21 45 45s-21 45 -45 45s-45 -21 -45 -45z" />
    <glyph glyph-name="asciicircum" unicode="^" horiz-adv-x="600" 
d="M413 355l-113 207l-113 -207c-18 -33 -38 -40 -69 -40c-42 0 -51 21 -51 36c0 14 4 27 13 44l154 280c19 35 40 43 66 43s47 -8 66 -43l154 -280c9 -17 13 -30 13 -44c0 -15 -9 -36 -51 -36c-31 0 -51 7 -69 40z" />
    <glyph glyph-name="asciitilde" unicode="~" horiz-adv-x="600" 
d="M559 321c0 -66 -55 -138 -147 -138c-79 0 -166 68 -217 68c-55 0 -69 -60 -111 -60c-32 0 -43 25 -43 54c0 66 55 138 141 138c85 0 172 -68 223 -68c55 0 69 60 111 60c32 0 43 -25 43 -54z" />
    <glyph glyph-name="asterisk" unicode="*" horiz-adv-x="389" 
d="M194 718c28 0 54 -13 54 -47c0 -16 -7 -42 -9 -63c29 20 50 41 75 41c31 0 54 -29 54 -59c0 -38 -51 -46 -84 -62c33 -16 84 -24 84 -62c0 -30 -23 -59 -54 -59c-25 0 -46 21 -75 41c2 -21 9 -47 9 -63c0 -34 -26 -47 -54 -47s-54 13 -54 47c0 16 7 42 9 63
c-30 -20 -53 -41 -76 -41c-32 0 -52 29 -52 59c0 38 51 46 83 62c-32 16 -83 24 -83 62c0 30 20 59 52 59c23 0 46 -21 76 -41c-2 21 -9 47 -9 63c0 34 26 47 54 47z" />
    <glyph glyph-name="at" unicode="@" horiz-adv-x="800" 
d="M313 333c0 -46 19 -81 67 -81c68 0 107 47 107 104c0 45 -26 78 -76 78c-57 0 -98 -49 -98 -101zM607 469l-31 -172c-2 -9 -6 -28 -6 -36c0 -11 5 -19 19 -19c36 0 86 45 86 152c0 160 -109 244 -261 244s-271 -126 -271 -283c0 -175 120 -281 280 -281
c83 0 148 23 183 52c10 8 20 11 29 11c20 0 38 -17 38 -37c0 -8 -2 -18 -11 -26c-30 -30 -117 -90 -239 -90c-213 0 -388 154 -388 371c0 213 171 373 382 373c189 0 348 -117 348 -306c0 -224 -191 -284 -250 -284c-38 0 -58 17 -59 50h-2c-24 -27 -62 -50 -124 -50
s-131 66 -131 170c0 140 91 240 195 240c60 0 93 -20 122 -62l4 18c7 31 30 36 47 36c24 0 44 -15 44 -43c0 -6 -1 -14 -4 -28z" />
    <glyph glyph-name="atilde" unicode="&#xe3;" horiz-adv-x="574" 
d="M541 457v-382c0 -45 -32 -81 -78 -81c-38 0 -62 26 -73 50c-35 -43 -75 -60 -134 -60c-136 0 -241 125 -241 282s105 282 241 282c59 0 99 -17 134 -60c11 24 35 50 73 50c46 0 78 -36 78 -81zM278 398c-69 0 -107 -60 -107 -132s38 -132 107 -132s107 60 107 132
s-38 132 -107 132zM74 657c0 53 46 109 101 109c75 0 137 -47 179 -47c40 0 49 47 88 47c37 0 58 -30 58 -64c0 -53 -46 -109 -101 -109c-75 0 -137 47 -179 47c-40 0 -49 -47 -88 -47c-37 0 -58 30 -58 64z" />
    <glyph glyph-name="b" unicode="b" horiz-adv-x="574" 
d="M33 75v614c0 45 32 81 78 81s78 -36 78 -81v-185c28 23 62 44 129 44c136 0 241 -125 241 -282s-105 -282 -241 -282c-59 0 -99 17 -134 60c-11 -24 -35 -50 -73 -50c-46 0 -78 36 -78 81zM296 398c-69 0 -107 -60 -107 -132s38 -132 107 -132s107 60 107 132
s-38 132 -107 132z" />
    <glyph glyph-name="backslash" unicode="\" horiz-adv-x="463" 
d="M318 66l-269 513c-20 38 -38 73 -38 95c0 34 22 54 56 54c35 0 57 -42 78 -82l269 -513c20 -38 38 -73 38 -95c0 -34 -22 -54 -56 -54c-35 0 -57 42 -78 82z" />
    <glyph glyph-name="bar" unicode="|" horiz-adv-x="222" 
d="M51 49v656c0 36 20 65 60 65s60 -29 60 -65v-656c0 -36 -20 -65 -60 -65s-60 29 -60 65z" />
    <glyph glyph-name="braceleft" unicode="{" horiz-adv-x="352" 
d="M98 -37v203c0 60 -23 66 -48 66c-33 0 -48 24 -48 48s15 48 48 48c25 0 48 6 48 66v203c0 91 46 131 133 131h74c26 0 45 -15 45 -45s-19 -45 -45 -45h-25c-28 0 -44 -17 -44 -58v-198c0 -91 -73 -98 -108 -101v-2c35 -3 108 -10 108 -101v-198c0 -41 16 -58 44 -58h25
c26 0 45 -15 45 -45s-19 -45 -45 -45h-74c-87 0 -133 40 -133 131z" />
    <glyph glyph-name="braceright" unicode="}" horiz-adv-x="352" 
d="M254 597v-203c0 -60 23 -66 48 -66c33 0 48 -24 48 -48s-15 -48 -48 -48c-25 0 -48 -6 -48 -66v-203c0 -91 -46 -131 -133 -131h-74c-26 0 -45 15 -45 45s19 45 45 45h25c28 0 44 17 44 58v198c0 91 73 98 108 101v2c-35 3 -108 10 -108 101v198c0 41 -16 58 -44 58h-25
c-26 0 -45 15 -45 45s19 45 45 45h74c87 0 133 -40 133 -131z" />
    <glyph glyph-name="bracketleft" unicode="[" horiz-adv-x="352" 
d="M218 614v-668h68c33 0 57 -23 57 -57s-24 -57 -57 -57h-137c-45 0 -69 24 -69 69v758c0 45 24 69 69 69h137c33 0 57 -23 57 -57s-24 -57 -57 -57h-68z" />
    <glyph glyph-name="bracketright" unicode="]" horiz-adv-x="352" 
d="M134 -54v668h-68c-33 0 -57 23 -57 57s24 57 57 57h137c45 0 69 -24 69 -69v-758c0 -45 -24 -69 -69 -69h-137c-33 0 -57 23 -57 57s24 57 57 57h68z" />
    <glyph glyph-name="breve" unicode="&#x2d8;" horiz-adv-x="222" 
d="M111 690c86 0 57 110 126 110c38 0 57 -27 57 -63c0 -91 -84 -155 -183 -155s-183 64 -183 155c0 36 19 63 57 63c69 0 40 -110 126 -110z" />
    <glyph glyph-name="brokenbar" unicode="&#xa6;" horiz-adv-x="222" 
d="M51 49v196c0 36 20 65 60 65s60 -29 60 -65v-196c0 -36 -20 -65 -60 -65s-60 29 -60 65zM51 509v196c0 36 20 65 60 65s60 -29 60 -65v-196c0 -36 -20 -65 -60 -65s-60 29 -60 65z" />
    <glyph glyph-name="bullet" unicode="&#x2022;" horiz-adv-x="500" 
d="M72 356c0 98 80 178 178 178s178 -80 178 -178s-80 -178 -178 -178s-178 80 -178 178z" />
    <glyph glyph-name="c" unicode="c" horiz-adv-x="463" 
d="M15 266c0 157 105 282 263 282c70 0 185 -20 185 -103c0 -42 -28 -73 -64 -73c-40 0 -51 26 -112 26c-79 0 -116 -60 -116 -132s38 -132 107 -132c67 0 98 27 121 27c36 0 64 -36 64 -69c0 -78 -123 -108 -185 -108c-158 0 -263 125 -263 282z" />
    <glyph glyph-name="caron" unicode="&#x2c7;" horiz-adv-x="222" 
d="M111 732l96 44c18 8 33 15 54 15c27 0 53 -26 53 -60c0 -42 -14 -58 -53 -76l-88 -40c-16 -7 -47 -22 -62 -22s-46 15 -62 22l-88 40c-39 18 -53 34 -53 76c0 34 26 60 53 60c21 0 36 -7 54 -15z" />
    <glyph glyph-name="ccedilla" unicode="&#xe7;" horiz-adv-x="463" 
d="M15 266c0 157 105 282 263 282c70 0 185 -20 185 -103c0 -42 -28 -73 -64 -73c-40 0 -51 26 -112 26c-79 0 -116 -60 -116 -132s38 -132 107 -132c67 0 98 27 121 27c36 0 64 -36 64 -69c0 -78 -123 -108 -185 -108c-158 0 -263 125 -263 282zM292 0l-39 -52
c8 1 16 1 24 1c45 0 80 -29 80 -80c0 -62 -73 -91 -125 -91c-29 0 -100 5 -100 47c0 15 11 34 27 34c21 0 35 -15 56 -15c18 0 34 12 34 32s-18 28 -31 28h-20c-12 0 -23 11 -23 23c0 16 17 36 27 48l21 25h69z" />
    <glyph glyph-name="cedilla" unicode="&#xb8;" horiz-adv-x="222" 
d="M171 0l-39 -52c8 1 16 1 24 1c45 0 80 -29 80 -80c0 -62 -73 -91 -125 -91c-29 0 -100 5 -100 47c0 15 11 34 27 34c21 0 35 -15 56 -15c18 0 34 12 34 32s-18 28 -31 28h-20c-12 0 -23 11 -23 23c0 16 17 36 27 48l21 25h69z" />
    <glyph glyph-name="cent" unicode="&#xa2;" horiz-adv-x="630" 
d="M326 138v254c-53 -14 -79 -66 -79 -126c0 -61 28 -114 79 -128zM326 -80v64c-143 15 -235 135 -235 282s92 266 235 282v58c0 16 14 31 30 31s30 -15 30 -31v-58c68 -5 153 -31 153 -103c0 -42 -28 -73 -64 -73c-34 0 -47 18 -89 24v-259c46 6 70 24 89 24
c36 0 64 -36 64 -69c0 -66 -89 -101 -153 -108v-64c0 -16 -14 -31 -30 -31s-30 15 -30 31z" />
    <glyph glyph-name="circumflex" unicode="&#x2c6;" horiz-adv-x="222" 
d="M111 652l-96 -44c-18 -8 -33 -15 -54 -15c-27 0 -53 26 -53 60c0 42 14 58 53 76l88 40c16 7 47 22 62 22s46 -15 62 -22l88 -40c39 -18 53 -34 53 -76c0 -34 -26 -60 -53 -60c-21 0 -36 7 -54 15z" />
    <glyph glyph-name="colon" unicode=":" horiz-adv-x="278" 
d="M52 71c0 47 40 87 87 87s87 -40 87 -87c0 -48 -40 -87 -87 -87s-87 39 -87 87zM52 383c0 47 40 87 87 87s87 -40 87 -87c0 -48 -40 -87 -87 -87s-87 39 -87 87z" />
    <glyph glyph-name="comma" unicode="," horiz-adv-x="278" 
d="M-3 -35l82 147c14 25 35 46 71 46c44 0 76 -27 76 -68c0 -21 -9 -37 -15 -48l-82 -147c-14 -25 -35 -46 -71 -46c-44 0 -76 27 -76 68c0 21 9 37 15 48z" />
    <glyph glyph-name="copyright" unicode="&#xa9;" horiz-adv-x="800" 
d="M28 356c0 236 179 372 372 372c192 0 372 -136 372 -372s-180 -372 -372 -372c-193 0 -372 136 -372 372zM142 356c0 -168 113 -282 258 -282c143 0 258 114 258 282s-115 282 -258 282c-145 0 -258 -114 -258 -282zM216 359c0 123 75 215 197 215
c103 0 165 -68 165 -120c0 -37 -28 -49 -42 -49c-26 0 -40 14 -52 43c-8 19 -32 36 -71 36c-54 0 -89 -46 -89 -123c0 -74 35 -126 91 -126c40 0 62 23 70 38c15 28 27 45 55 45c25 0 42 -17 42 -44c0 -38 -61 -129 -167 -129c-120 0 -199 94 -199 214z" />
    <glyph glyph-name="currency" unicode="&#xa4;" horiz-adv-x="630" 
d="M78 193l24 23c-26 38 -42 85 -42 140s16 102 42 140l-24 23c-11 11 -15 24 -15 34c0 27 24 52 51 52c15 0 29 -5 41 -17l19 -19c39 27 87 42 141 42s102 -15 141 -42l19 19c12 12 26 17 41 17c27 0 51 -25 51 -52c0 -10 -4 -23 -15 -34l-24 -23c26 -38 42 -85 42 -140
s-16 -102 -42 -140l24 -23c11 -11 15 -24 15 -34c0 -27 -24 -52 -51 -52c-15 0 -29 5 -41 17l-19 19c-39 -27 -87 -42 -141 -42s-102 15 -141 42l-19 -19c-12 -12 -26 -17 -41 -17c-27 0 -51 25 -51 52c0 10 4 23 15 34zM186 356c0 -75 55 -135 130 -135
c74 0 128 59 128 135c0 75 -55 135 -128 135c-74 0 -130 -61 -130 -135z" />
    <glyph glyph-name="d" unicode="d" horiz-adv-x="574" 
d="M541 689v-614c0 -45 -32 -81 -78 -81c-38 0 -62 26 -73 50c-35 -43 -75 -60 -134 -60c-136 0 -241 125 -241 282s105 282 241 282c67 0 101 -21 129 -44v185c0 45 32 81 78 81s78 -36 78 -81zM278 398c-69 0 -107 -60 -107 -132s38 -132 107 -132s107 60 107 132
s-38 132 -107 132z" />
    <glyph glyph-name="dagger" unicode="&#x2020;" horiz-adv-x="574" 
d="M218 508v151c0 44 27 69 69 69s69 -25 69 -69v-151h134c34 0 57 -23 57 -57s-23 -57 -57 -57h-134v-505c0 -44 -27 -69 -69 -69s-69 25 -69 69v505h-134c-34 0 -57 23 -57 57s23 57 57 57h134z" />
    <glyph glyph-name="daggerdbl" unicode="&#x2021;" horiz-adv-x="574" 
d="M218 508v151c0 44 27 69 69 69s69 -25 69 -69v-151h134c34 0 57 -23 57 -57s-23 -57 -57 -57h-134v-240h134c34 0 57 -23 57 -57s-23 -57 -57 -57h-134v-151c0 -44 -27 -69 -69 -69s-69 25 -69 69v151h-134c-34 0 -57 23 -57 57s23 57 57 57h134v240h-134
c-34 0 -57 23 -57 57s23 57 57 57h134z" />
    <glyph glyph-name="degree" unicode="&#xb0;" horiz-adv-x="400" 
d="M129 585c0 -38 33 -71 71 -71s71 33 71 71s-33 71 -71 71s-71 -33 -71 -71zM57 585c0 80 63 143 143 143s143 -63 143 -143s-63 -143 -143 -143s-143 63 -143 143z" />
    <glyph glyph-name="dieresis" unicode="&#xa8;" horiz-adv-x="222" 
d="M227 770c43 0 78 -35 78 -78s-35 -78 -78 -78s-78 35 -78 78s35 78 78 78zM-5 770c43 0 78 -35 78 -78s-35 -78 -78 -78s-78 35 -78 78s35 78 78 78z" />
    <glyph glyph-name="divide" unicode="&#xf7;" horiz-adv-x="600" 
d="M87 349h426c42 0 70 -24 70 -66s-28 -66 -70 -66h-426c-42 0 -70 24 -70 66s28 66 70 66zM300 588c50 0 93 -43 93 -93s-43 -93 -93 -93s-93 43 -93 93s43 93 93 93zM300 164c50 0 93 -43 93 -93s-43 -93 -93 -93s-93 43 -93 93s43 93 93 93z" />
    <glyph glyph-name="dollar" unicode="$" horiz-adv-x="630" 
d="M285 -60v44c-66 4 -226 22 -226 116c0 42 31 83 72 83c35 0 85 -43 154 -43v155c-168 49 -223 111 -223 203c0 134 102 219 223 230v46c0 19 9 30 30 30c23 0 30 -11 30 -30v-46c63 -2 177 -22 177 -106c0 -38 -26 -75 -67 -75c-37 0 -68 37 -110 37v-141
c114 -32 226 -85 226 -223c0 -156 -129 -230 -226 -236v-44c0 -19 -9 -30 -30 -30c-23 0 -30 11 -30 30zM285 460v124c-31 -7 -55 -30 -55 -66c0 -32 26 -51 55 -58zM345 279v-139c34 0 58 34 58 68c0 42 -22 60 -58 71z" />
    <glyph glyph-name="dotaccent" unicode="&#x2d9;" horiz-adv-x="222" 
d="M111 770c43 0 78 -35 78 -78s-35 -78 -78 -78s-78 35 -78 78s35 78 78 78z" />
    <glyph glyph-name="dotlessi" unicode="&#x131;" horiz-adv-x="222" 
d="M33 75v382c0 45 32 81 78 81s78 -36 78 -81v-382c0 -45 -32 -81 -78 -81s-78 36 -78 81z" />
    <glyph glyph-name="e" unicode="e" 
d="M465 215h-282c0 -33 25 -87 125 -87c77 0 124 49 160 49c35 0 65 -27 65 -67c0 -76 -127 -126 -245 -126c-168 0 -273 125 -273 282c0 150 113 282 273 282c154 0 253 -129 253 -265c0 -55 -26 -68 -76 -68zM183 322h202c0 35 -40 94 -101 94s-101 -59 -101 -94z" />
    <glyph glyph-name="eacute" unicode="&#xe9;" 
d="M465 215h-282c0 -33 25 -87 125 -87c77 0 124 49 160 49c35 0 65 -27 65 -67c0 -76 -127 -126 -245 -126c-168 0 -273 125 -273 282c0 150 113 282 273 282c154 0 253 -129 253 -265c0 -55 -26 -68 -76 -68zM183 322h202c0 35 -40 94 -101 94s-101 -59 -101 -94zM420 667
l-150 -65c-9 -4 -26 -9 -41 -9c-40 0 -65 31 -65 69c0 27 14 46 37 55l150 65c9 4 26 9 41 9c40 0 65 -31 65 -69c0 -27 -14 -46 -37 -55z" />
    <glyph glyph-name="ecircumflex" unicode="&#xea;" 
d="M465 215h-282c0 -33 25 -87 125 -87c77 0 124 49 160 49c35 0 65 -27 65 -67c0 -76 -127 -126 -245 -126c-168 0 -273 125 -273 282c0 150 113 282 273 282c154 0 253 -129 253 -265c0 -55 -26 -68 -76 -68zM183 322h202c0 35 -40 94 -101 94s-101 -59 -101 -94zM278 652
l-96 -44c-18 -8 -33 -15 -54 -15c-27 0 -53 26 -53 60c0 42 14 58 53 76l88 40c16 7 47 22 62 22s46 -15 62 -22l88 -40c39 -18 53 -34 53 -76c0 -34 -26 -60 -53 -60c-21 0 -36 7 -54 15z" />
    <glyph glyph-name="edieresis" unicode="&#xeb;" 
d="M465 215h-282c0 -33 25 -87 125 -87c77 0 124 49 160 49c35 0 65 -27 65 -67c0 -76 -127 -126 -245 -126c-168 0 -273 125 -273 282c0 150 113 282 273 282c154 0 253 -129 253 -265c0 -55 -26 -68 -76 -68zM183 322h202c0 35 -40 94 -101 94s-101 -59 -101 -94zM394 770
c43 0 78 -35 78 -78s-35 -78 -78 -78s-78 35 -78 78s35 78 78 78zM162 770c43 0 78 -35 78 -78s-35 -78 -78 -78s-78 35 -78 78s35 78 78 78z" />
    <glyph glyph-name="egrave" unicode="&#xe8;" 
d="M465 215h-282c0 -33 25 -87 125 -87c77 0 124 49 160 49c35 0 65 -27 65 -67c0 -76 -127 -126 -245 -126c-168 0 -273 125 -273 282c0 150 113 282 273 282c154 0 253 -129 253 -265c0 -55 -26 -68 -76 -68zM183 322h202c0 35 -40 94 -101 94s-101 -59 -101 -94zM205 782
l150 -65c23 -9 37 -28 37 -55c0 -38 -25 -69 -65 -69c-15 0 -32 5 -41 9l-150 65c-23 9 -37 28 -37 55c0 38 25 69 65 69c15 0 32 -5 41 -9z" />
    <glyph glyph-name="eight" unicode="8" 
d="M278 728c124 0 231 -68 231 -200c0 -70 -42 -122 -66 -141c66 -40 96 -106 96 -171c0 -130 -103 -232 -261 -232s-261 102 -261 232c0 65 30 131 96 171c-24 19 -66 71 -66 141c0 132 107 200 231 200zM185 233c0 -52 41 -93 93 -93s93 41 93 93s-41 93 -93 93
s-93 -41 -93 -93zM209 515c0 -37 32 -69 69 -69s69 32 69 69s-32 69 -69 69s-69 -32 -69 -69z" />
    <glyph glyph-name="ellipsis" unicode="&#x2026;" horiz-adv-x="1000" 
d="M80 71c0 47 40 87 87 87s87 -40 87 -87c0 -48 -40 -87 -87 -87s-87 39 -87 87zM413 71c0 47 40 87 87 87s87 -40 87 -87c0 -48 -40 -87 -87 -87s-87 39 -87 87zM746 71c0 47 40 87 87 87s87 -40 87 -87c0 -48 -40 -87 -87 -87s-87 39 -87 87z" />
    <glyph glyph-name="emdash" unicode="&#x2014;" horiz-adv-x="1000" 
d="M0 345h1000c41 0 66 -26 66 -66s-25 -66 -66 -66h-1000c-41 0 -66 26 -66 66s25 66 66 66z" />
    <glyph glyph-name="endash" unicode="&#x2013;" horiz-adv-x="500" 
d="M66 345h368c41 0 66 -26 66 -66s-25 -66 -66 -66h-368c-41 0 -66 26 -66 66s25 66 66 66z" />
    <glyph glyph-name="equal" unicode="=" horiz-adv-x="600" 
d="M87 467h426c42 0 70 -24 70 -66s-28 -66 -70 -66h-426c-42 0 -70 24 -70 66s28 66 70 66zM87 231h426c42 0 70 -24 70 -66s-28 -66 -70 -66h-426c-42 0 -70 24 -70 66s28 66 70 66z" />
    <glyph glyph-name="eth" unicode="&#xf0;" 
d="M15 250c0 156 101 266 245 266c47 0 83 -9 104 -32l2 2c-18 36 -57 91 -100 112l-92 -45c-20 -10 -33 -16 -49 -16c-23 0 -36 24 -36 40c0 22 11 30 34 41l61 30c-48 26 -76 42 -76 74c0 30 31 58 84 58c45 0 106 -21 152 -55l82 40c13 7 21 9 33 9c19 0 37 -16 37 -41
c0 -23 -16 -31 -33 -39l-51 -25c70 -61 129 -175 129 -371c0 -168 -79 -314 -263 -314c-151 0 -263 110 -263 266zM278 366c-63 0 -107 -56 -107 -116s44 -116 107 -116s107 56 107 116s-44 116 -107 116z" />
    <glyph glyph-name="exclam" unicode="!" horiz-adv-x="260" 
d="M208 640v-351c0 -47 -28 -88 -78 -88s-78 41 -78 88v351c0 47 28 88 78 88s78 -41 78 -88zM43 71c0 47 40 87 87 87s87 -40 87 -87c0 -48 -40 -87 -87 -87s-87 39 -87 87z" />
    <glyph glyph-name="exclamdown" unicode="&#xa1;" horiz-adv-x="260" 
d="M52 -108v351c0 47 28 88 78 88s78 -41 78 -88v-351c0 -47 -28 -88 -78 -88s-78 41 -78 88zM217 461c0 -47 -40 -87 -87 -87s-87 40 -87 87c0 48 40 87 87 87s87 -39 87 -87z" />
    <glyph glyph-name="f" unicode="f" horiz-adv-x="333" 
d="M76 75v313h-18c-50 0 -82 22 -82 72s32 72 82 72h18v70c0 95 66 168 162 168c48 0 104 -13 104 -72c0 -49 -25 -72 -74 -72c-24 0 -36 -11 -36 -51v-43h43c50 0 82 -22 82 -72s-32 -72 -82 -72h-43v-313c0 -45 -32 -81 -78 -81s-78 36 -78 81z" />
    <glyph glyph-name="fi" unicode="&#xfb01;" 
d="M367 75v382c0 45 32 81 78 81s78 -36 78 -81v-382c0 -45 -32 -81 -78 -81s-78 36 -78 81zM352 677c0 52 42 93 93 93s93 -41 93 -93s-42 -93 -93 -93s-93 41 -93 93zM76 75v313h-18c-50 0 -82 22 -82 72s32 72 82 72h18v70c0 95 66 168 162 168c48 0 104 -13 104 -72
c0 -49 -25 -72 -74 -72c-24 0 -36 -11 -36 -51v-43h43c50 0 82 -22 82 -72s-32 -72 -82 -72h-43v-313c0 -45 -32 -81 -78 -81s-78 36 -78 81z" />
    <glyph glyph-name="five" unicode="5" horiz-adv-x="500" 
d="M224 562l-11 -88c22 6 51 10 75 10c138 0 210 -109 210 -237c0 -147 -113 -263 -264 -263c-104 0 -232 56 -232 133c0 48 31 81 69 81c56 0 85 -58 158 -58c57 0 95 41 95 117c0 48 -28 95 -80 95c-65 0 -69 -36 -122 -36c-39 0 -65 22 -65 59c0 21 1 40 5 75l25 195
c8 61 44 67 86 67h244c50 0 75 -38 75 -75s-25 -75 -75 -75h-193z" />
    <glyph glyph-name="fl" unicode="&#xfb02;" 
d="M367 75v614c0 45 32 81 78 81s78 -36 78 -81v-614c0 -45 -32 -81 -78 -81s-78 36 -78 81zM76 75v313h-18c-50 0 -82 22 -82 72s32 72 82 72h18v70c0 95 66 168 162 168c48 0 104 -13 104 -72c0 -49 -25 -72 -74 -72c-24 0 -36 -11 -36 -51v-43h43c50 0 82 -22 82 -72
s-32 -72 -82 -72h-43v-313c0 -45 -32 -81 -78 -81s-78 36 -78 81z" />
    <glyph glyph-name="florin" unicode="&#x192;" horiz-adv-x="630" 
d="M368 322l-64 -352c-22 -121 -61 -160 -185 -160c-71 0 -93 33 -93 60c0 50 17 60 64 60s64 11 74 64l61 328h-65c-33 0 -50 15 -50 45s17 45 50 45h82l30 162c21 116 57 154 169 154c65 0 108 -12 108 -60c0 -49 -18 -60 -78 -60c-37 0 -49 -10 -54 -37l-32 -159h65
c33 0 50 -15 50 -45s-17 -45 -50 -45h-82z" />
    <glyph glyph-name="four" unicode="4" horiz-adv-x="611" 
d="M339 82v68h-267c-61 0 -81 37 -81 64c0 31 19 61 31 79l238 368c29 45 64 57 115 57c74 0 120 -50 120 -122v-302h34c50 0 82 -22 82 -72s-32 -72 -82 -72h-34v-66c0 -59 -30 -90 -78 -90s-78 31 -78 88zM339 294v255h-2l-148 -255h150z" />
    <glyph glyph-name="fraction" unicode="&#x2044;" horiz-adv-x="167" 
d="M-123 114l323 561c17 30 33 53 62 53c34 0 59 -26 59 -56c0 -27 -19 -54 -31 -74l-323 -561c-17 -30 -33 -53 -62 -53c-34 0 -59 26 -59 56c0 27 19 54 31 74z" />
    <glyph glyph-name="g" unicode="g" horiz-adv-x="574" 
d="M541 457v-405c0 -199 -130 -274 -283 -274c-81 0 -233 31 -233 116c0 35 34 68 65 68c45 0 74 -46 165 -46c97 0 130 51 130 138h-2c-34 -48 -90 -60 -142 -60c-151 0 -226 131 -226 272c0 157 105 282 241 282c59 0 99 -17 134 -60c11 24 35 50 73 50
c46 0 78 -36 78 -81zM385 266c0 72 -38 132 -107 132s-107 -60 -107 -132c0 -76 38 -134 107 -134s107 58 107 134z" />
    <glyph glyph-name="germandbls" unicode="&#xdf;" horiz-adv-x="574" 
d="M36 75v458c0 141 103 237 237 237c136 0 227 -87 227 -214c0 -51 -23 -103 -64 -131c81 -31 119 -108 119 -193c0 -145 -117 -248 -233 -248c-53 0 -89 27 -89 74s27 69 80 77c47 7 80 58 80 102c0 75 -54 94 -82 99c-57 10 -85 27 -85 78c0 101 118 38 118 140
c0 38 -27 66 -69 66c-64 0 -83 -51 -83 -118v-427c0 -45 -32 -81 -78 -81s-78 36 -78 81z" />
    <glyph glyph-name="grave" unicode="`" horiz-adv-x="222" 
d="M38 782l150 -65c23 -9 37 -28 37 -55c0 -38 -25 -69 -65 -69c-15 0 -32 5 -41 9l-150 65c-23 9 -37 28 -37 55c0 38 25 69 65 69c15 0 32 -5 41 -9z" />
    <glyph glyph-name="greater" unicode="&#x3e;" horiz-adv-x="600" 
d="M70 148l322 135l-322 135c-42 18 -47 40 -47 63c0 38 23 60 55 60c14 0 30 -2 55 -14l407 -187c21 -10 37 -32 37 -57s-16 -47 -37 -57l-407 -187c-25 -12 -41 -14 -55 -14c-32 0 -55 22 -55 60c0 23 5 45 47 63z" />
    <glyph glyph-name="guillemotleft" unicode="&#xab;" horiz-adv-x="593" 
d="M184 136l-84 61c-31 22 -40 51 -40 82s9 59 40 82l84 61c15 11 33 21 51 21c31 0 51 -25 51 -53c0 -20 -5 -38 -27 -53l-89 -58l89 -59c22 -14 27 -32 27 -52c0 -28 -20 -53 -51 -53c-18 0 -36 10 -51 21zM431 136l-84 61c-31 22 -40 51 -40 82s9 59 40 82l84 61
c15 11 33 21 51 21c31 0 51 -25 51 -53c0 -20 -5 -38 -27 -53l-89 -58l89 -59c22 -14 27 -32 27 -52c0 -28 -20 -53 -51 -53c-18 0 -36 10 -51 21z" />
    <glyph glyph-name="guillemotright" unicode="&#xbb;" horiz-adv-x="593" 
d="M409 422l84 -61c31 -22 40 -51 40 -82s-9 -59 -40 -82l-84 -61c-15 -11 -33 -21 -51 -21c-31 0 -51 25 -51 53c0 20 5 38 27 53l89 58l-89 59c-22 14 -27 32 -27 52c0 28 20 53 51 53c18 0 36 -10 51 -21zM162 422l84 -61c31 -22 40 -51 40 -82s-9 -59 -40 -82l-84 -61
c-15 -11 -33 -21 -51 -21c-31 0 -51 25 -51 53c0 20 5 38 27 53l89 58l-89 59c-22 14 -27 32 -27 52c0 28 20 53 51 53c18 0 36 -10 51 -21z" />
    <glyph glyph-name="guilsinglleft" unicode="&#x2039;" horiz-adv-x="370" 
d="M196 136l-84 61c-31 22 -40 51 -40 82s9 59 40 82l84 61c15 11 33 21 51 21c31 0 51 -25 51 -53c0 -20 -5 -38 -27 -53l-89 -58l89 -59c22 -14 27 -32 27 -52c0 -28 -20 -53 -51 -53c-18 0 -36 10 -51 21z" />
    <glyph glyph-name="guilsinglright" unicode="&#x203a;" horiz-adv-x="370" 
d="M174 422l84 -61c31 -22 40 -51 40 -82s-9 -59 -40 -82l-84 -61c-15 -11 -33 -21 -51 -21c-31 0 -51 25 -51 53c0 20 5 38 27 53l89 58l-89 59c-22 14 -27 32 -27 52c0 28 20 53 51 53c18 0 36 -10 51 -21z" />
    <glyph glyph-name="h" unicode="h" 
d="M36 75v614c0 45 32 81 78 81s78 -36 78 -81v-180h2c32 20 72 39 132 39c108 0 194 -56 194 -184v-289c0 -45 -32 -81 -78 -81s-78 36 -78 81v247c0 54 -32 94 -86 94s-86 -40 -86 -94v-247c0 -45 -32 -81 -78 -81s-78 36 -78 81z" />
    <glyph glyph-name="hungarumlaut" unicode="&#x2dd;" horiz-adv-x="222" 
d="M83 667l-150 -65c-9 -4 -26 -9 -41 -9c-40 0 -65 31 -65 69c0 27 14 46 37 55l150 65c9 4 26 9 41 9c40 0 65 -31 65 -69c0 -27 -14 -46 -37 -55zM416 667l-150 -65c-9 -4 -26 -9 -41 -9c-40 0 -65 31 -65 69c0 27 14 46 37 55l150 65c9 4 26 9 41 9c40 0 65 -31 65 -69
c0 -27 -14 -46 -37 -55z" />
    <glyph glyph-name="hyphen" unicode="-" horiz-adv-x="426" 
d="M95 345h236c41 0 66 -26 66 -66s-25 -66 -66 -66h-236c-41 0 -66 26 -66 66s25 66 66 66z" />
    <glyph glyph-name="i" unicode="i" horiz-adv-x="222" 
d="M33 75v382c0 45 32 81 78 81s78 -36 78 -81v-382c0 -45 -32 -81 -78 -81s-78 36 -78 81zM18 677c0 52 42 93 93 93s93 -41 93 -93s-42 -93 -93 -93s-93 41 -93 93z" />
    <glyph glyph-name="iacute" unicode="&#xed;" horiz-adv-x="222" 
d="M33 75v382c0 45 32 81 78 81s78 -36 78 -81v-382c0 -45 -32 -81 -78 -81s-78 36 -78 81zM253 667l-150 -65c-9 -4 -26 -9 -41 -9c-40 0 -65 31 -65 69c0 27 14 46 37 55l150 65c9 4 26 9 41 9c40 0 65 -31 65 -69c0 -27 -14 -46 -37 -55z" />
    <glyph glyph-name="icircumflex" unicode="&#xee;" horiz-adv-x="222" 
d="M33 75v382c0 45 32 81 78 81s78 -36 78 -81v-382c0 -45 -32 -81 -78 -81s-78 36 -78 81zM111 652l-96 -44c-18 -8 -33 -15 -54 -15c-27 0 -53 26 -53 60c0 42 14 58 53 76l88 40c16 7 47 22 62 22s46 -15 62 -22l88 -40c39 -18 53 -34 53 -76c0 -34 -26 -60 -53 -60
c-21 0 -36 7 -54 15z" />
    <glyph glyph-name="idieresis" unicode="&#xef;" horiz-adv-x="222" 
d="M33 75v382c0 45 32 81 78 81s78 -36 78 -81v-382c0 -45 -32 -81 -78 -81s-78 36 -78 81zM227 770c43 0 78 -35 78 -78s-35 -78 -78 -78s-78 35 -78 78s35 78 78 78zM-5 770c43 0 78 -35 78 -78s-35 -78 -78 -78s-78 35 -78 78s35 78 78 78z" />
    <glyph glyph-name="igrave" unicode="&#xec;" horiz-adv-x="222" 
d="M33 75v382c0 45 32 81 78 81s78 -36 78 -81v-382c0 -45 -32 -81 -78 -81s-78 36 -78 81zM38 782l150 -65c23 -9 37 -28 37 -55c0 -38 -25 -69 -65 -69c-15 0 -32 5 -41 9l-150 65c-23 9 -37 28 -37 55c0 38 25 69 65 69c15 0 32 -5 41 -9z" />
    <glyph glyph-name="j" unicode="j" horiz-adv-x="222" 
d="M33 -141v598c0 45 32 81 78 81s78 -36 78 -81v-598c0 -45 -32 -81 -78 -81s-78 36 -78 81zM18 677c0 52 42 93 93 93s93 -41 93 -93s-42 -93 -93 -93s-93 41 -93 93z" />
    <glyph glyph-name="k" unicode="k" horiz-adv-x="500" 
d="M36 75v614c0 45 32 81 78 81s78 -36 78 -81v-332l127 127c27 27 50 54 88 54c46 0 76 -34 76 -72c0 -28 -18 -46 -55 -82l-84 -83l131 -166c16 -20 37 -46 37 -69c0 -30 -23 -72 -77 -72c-36 0 -52 11 -85 53l-156 204h-2v-176c0 -45 -32 -81 -78 -81s-78 36 -78 81z" />
    <glyph glyph-name="l" unicode="l" horiz-adv-x="222" 
d="M33 75v614c0 45 32 81 78 81s78 -36 78 -81v-614c0 -45 -32 -81 -78 -81s-78 36 -78 81z" />
    <glyph glyph-name="less" unicode="&#x3c;" horiz-adv-x="600" 
d="M467 39l-407 187c-21 10 -37 32 -37 57s16 47 37 57l407 187c25 12 41 14 55 14c32 0 55 -22 55 -60c0 -23 -5 -45 -47 -63l-322 -135l322 -135c42 -18 47 -40 47 -63c0 -38 -23 -60 -55 -60c-14 0 -30 2 -55 14z" />
    <glyph glyph-name="logicalnot" unicode="&#xac;" horiz-adv-x="600" 
d="M87 467h416c66 0 80 -21 80 -80v-203c0 -41 -23 -70 -63 -70s-63 29 -63 70v151h-370c-42 0 -70 24 -70 66s28 66 70 66z" />
    <glyph glyph-name="lslash" unicode="&#x142;" horiz-adv-x="222" 
d="M33 75v172l-5 -5c-14 -14 -29 -25 -43 -25c-30 0 -47 26 -47 52c0 15 7 27 21 41l74 74v305c0 45 32 81 78 81s78 -36 78 -81v-148l5 5c14 14 29 25 43 25c30 0 47 -26 47 -52c0 -15 -7 -27 -21 -41l-74 -74v-329c0 -45 -32 -81 -78 -81s-78 36 -78 81z" />
    <glyph glyph-name="m" unicode="m" horiz-adv-x="852" 
d="M36 75v382c0 45 32 81 78 81c42 0 68 -27 78 -50c25 39 78 60 134 60c45 0 107 -16 145 -64c37 28 84 64 151 64c108 0 194 -56 194 -184v-289c0 -45 -32 -81 -78 -81s-78 36 -78 81v247c0 49 -27 94 -78 94s-78 -45 -78 -94v-247c0 -45 -32 -81 -78 -81s-78 36 -78 81
v247c0 49 -27 94 -78 94s-78 -45 -78 -94v-247c0 -45 -32 -81 -78 -81s-78 36 -78 81z" />
    <glyph glyph-name="macron" unicode="&#xaf;" horiz-adv-x="222" 
d="M-9 755h240c40 0 63 -25 63 -63s-23 -63 -63 -63h-240c-39 0 -63 25 -63 63s24 63 63 63z" />
    <glyph glyph-name="minus" unicode="&#x2212;" horiz-adv-x="600" 
d="M87 349h426c42 0 70 -24 70 -66s-28 -66 -70 -66h-426c-42 0 -70 24 -70 66s28 66 70 66z" />
    <glyph glyph-name="mu" unicode="&#x3bc;" 
d="M36 -141v598c0 45 32 81 78 81s78 -36 78 -81v-241c0 -59 45 -86 86 -86c54 0 86 40 86 94v233c0 45 32 81 78 81s78 -36 78 -81v-382c0 -45 -32 -81 -78 -81c-38 0 -62 26 -73 50c-30 -37 -59 -50 -89 -50c-44 0 -72 22 -86 49h-2v-184c0 -45 -32 -81 -78 -81
s-78 36 -78 81z" />
    <glyph glyph-name="multiply" unicode="&#xd7;" horiz-adv-x="600" 
d="M162 510l138 -137l138 137c12 12 24 20 41 20s28 -9 45 -24c15 -14 23 -32 23 -49c0 -13 -9 -27 -19 -37l-138 -137l138 -138c12 -12 19 -25 19 -40c0 -19 -8 -31 -23 -46s-31 -23 -48 -23c-14 0 -28 9 -38 19l-138 138l-138 -138c-10 -10 -24 -19 -38 -19
c-17 0 -33 9 -48 23c-15 15 -24 27 -23 45c0 16 6 29 18 41l138 138l-138 137c-10 10 -18 24 -18 38c0 17 8 33 23 48c16 16 27 24 46 24c15 0 28 -8 40 -20z" />
    <glyph glyph-name="n" unicode="n" 
d="M36 75v382c0 45 32 81 78 81c42 0 68 -27 78 -50c25 39 67 60 134 60c108 0 194 -56 194 -184v-289c0 -45 -32 -81 -78 -81s-78 36 -78 81v247c0 54 -32 94 -86 94s-86 -40 -86 -94v-247c0 -45 -32 -81 -78 -81s-78 36 -78 81z" />
    <glyph glyph-name="nine" unicode="9" horiz-adv-x="538" 
d="M528 485c0 -129 -71 -245 -141 -332c-120 -149 -146 -169 -185 -169c-54 0 -78 51 -78 78c0 53 78 95 151 202l-2 2c-15 -5 -33 -8 -63 -8c-118 0 -200 111 -200 223c0 139 106 247 259 247c158 0 259 -99 259 -243zM360 481c0 49 -41 91 -91 91s-91 -42 -91 -91
s41 -91 91 -91s91 42 91 91z" />
    <glyph glyph-name="ntilde" unicode="&#xf1;" 
d="M36 75v382c0 45 32 81 78 81c42 0 68 -27 78 -50c25 39 67 60 134 60c108 0 194 -56 194 -184v-289c0 -45 -32 -81 -78 -81s-78 36 -78 81v247c0 54 -32 94 -86 94s-86 -40 -86 -94v-247c0 -45 -32 -81 -78 -81s-78 36 -78 81zM65 657c0 53 46 109 101 109
c75 0 137 -47 179 -47c40 0 49 47 88 47c37 0 58 -30 58 -64c0 -53 -46 -109 -101 -109c-75 0 -137 47 -179 47c-40 0 -49 -47 -88 -47c-37 0 -58 30 -58 64z" />
    <glyph glyph-name="numbersign" unicode="#" horiz-adv-x="600" 
d="M115 70l18 130h-38c-35 0 -48 24 -48 49c0 23 13 47 48 47h51l16 119h-38c-35 0 -48 24 -48 48s13 48 48 48h53l21 155c4 29 16 52 56 52c25 0 45 -16 45 -41c0 -3 -1 -15 -4 -35l-18 -131h90l21 155c4 29 16 52 56 52c25 0 45 -16 45 -41c0 -3 -1 -15 -4 -35l-18 -131
h38c35 0 48 -24 48 -48c0 -23 -13 -48 -48 -48h-51l-16 -119h38c35 0 48 -24 48 -47c0 -24 -13 -49 -48 -49h-53l-21 -154c-4 -29 -16 -52 -56 -52c-25 0 -45 16 -45 41c0 3 1 15 4 35l18 130h-90l-21 -154c-4 -29 -16 -52 -56 -52c-25 0 -45 16 -45 41c0 3 1 15 4 35z
M338 296l16 119h-91l-16 -119h91z" />
    <glyph glyph-name="o" unicode="o" 
d="M278 548c158 0 263 -125 263 -282s-105 -282 -263 -282s-263 125 -263 282s105 282 263 282zM278 398c-69 0 -107 -60 -107 -132s38 -132 107 -132s107 60 107 132s-38 132 -107 132z" />
    <glyph glyph-name="oacute" unicode="&#xf3;" 
d="M278 548c158 0 263 -125 263 -282s-105 -282 -263 -282s-263 125 -263 282s105 282 263 282zM278 398c-69 0 -107 -60 -107 -132s38 -132 107 -132s107 60 107 132s-38 132 -107 132zM420 667l-150 -65c-9 -4 -26 -9 -41 -9c-40 0 -65 31 -65 69c0 27 14 46 37 55l150 65
c9 4 26 9 41 9c40 0 65 -31 65 -69c0 -27 -14 -46 -37 -55z" />
    <glyph glyph-name="ocircumflex" unicode="&#xf4;" 
d="M278 548c158 0 263 -125 263 -282s-105 -282 -263 -282s-263 125 -263 282s105 282 263 282zM278 398c-69 0 -107 -60 -107 -132s38 -132 107 -132s107 60 107 132s-38 132 -107 132zM278 652l-96 -44c-18 -8 -33 -15 -54 -15c-27 0 -53 26 -53 60c0 42 14 58 53 76
l88 40c16 7 47 22 62 22s46 -15 62 -22l88 -40c39 -18 53 -34 53 -76c0 -34 -26 -60 -53 -60c-21 0 -36 7 -54 15z" />
    <glyph glyph-name="odieresis" unicode="&#xf6;" 
d="M278 548c158 0 263 -125 263 -282s-105 -282 -263 -282s-263 125 -263 282s105 282 263 282zM278 398c-69 0 -107 -60 -107 -132s38 -132 107 -132s107 60 107 132s-38 132 -107 132zM394 770c43 0 78 -35 78 -78s-35 -78 -78 -78s-78 35 -78 78s35 78 78 78zM162 770
c43 0 78 -35 78 -78s-35 -78 -78 -78s-78 35 -78 78s35 78 78 78z" />
    <glyph glyph-name="oe" unicode="&#x153;" horiz-adv-x="926" 
d="M835 215h-294c0 -33 37 -87 137 -87c77 0 124 49 160 49c35 0 65 -27 65 -67c0 -76 -127 -126 -245 -126c-74 0 -141 23 -192 72c-44 -47 -112 -72 -188 -72c-158 0 -263 125 -263 282s105 282 263 282c89 0 139 -23 198 -71c52 49 112 71 182 71
c154 0 253 -129 253 -265c0 -55 -26 -68 -76 -68zM278 398c-69 0 -107 -60 -107 -132s38 -132 107 -132s107 60 107 132s-38 132 -107 132zM541 322h214c0 35 -40 94 -107 94s-107 -59 -107 -94z" />
    <glyph glyph-name="ogonek" unicode="&#x2db;" horiz-adv-x="222" 
d="M-15 -138c0 65 67 120 111 138h81c-35 -18 -84 -68 -84 -105c0 -24 12 -39 35 -39c16 0 23 7 39 7c13 0 21 -8 21 -28c0 -36 -48 -57 -111 -57c-54 0 -92 32 -92 84z" />
    <glyph glyph-name="ograve" unicode="&#xf2;" 
d="M278 548c158 0 263 -125 263 -282s-105 -282 -263 -282s-263 125 -263 282s105 282 263 282zM278 398c-69 0 -107 -60 -107 -132s38 -132 107 -132s107 60 107 132s-38 132 -107 132zM205 782l150 -65c23 -9 37 -28 37 -55c0 -38 -25 -69 -65 -69c-15 0 -32 5 -41 9
l-150 65c-23 9 -37 28 -37 55c0 38 25 69 65 69c15 0 32 -5 41 -9z" />
    <glyph glyph-name="one" unicode="1" horiz-adv-x="333" 
d="M122 626v-482h-51c-50 0 -75 -38 -75 -75s25 -75 75 -75h132c37 0 81 14 81 81v551c0 57 -34 86 -81 86s-81 -29 -81 -86z" />
    <glyph glyph-name="onehalf" unicode="&#xbd;" horiz-adv-x="945" 
d="M226 114l323 561c17 30 33 53 62 53c34 0 59 -26 59 -56c0 -27 -19 -54 -31 -74l-323 -561c-17 -30 -33 -53 -62 -53c-34 0 -59 26 -59 56c0 27 19 54 31 74zM125 342v284h-35c-32 0 -48 23 -48 48s16 48 48 48h92c28 0 57 -15 57 -55v-325c0 -30 -21 -57 -57 -57
c-38 0 -57 27 -57 57zM745 96h110c32 0 48 -23 48 -48s-16 -48 -48 -48h-220c-31 0 -61 17 -61 42c1 61 205 178 205 257c0 25 -25 36 -44 36c-65 0 -30 -82 -100 -82c-37 0 -53 24 -53 46c0 74 65 138 160 138c84 0 151 -51 151 -130c0 -86 -94 -154 -148 -211z" />
    <glyph glyph-name="onequarter" unicode="&#xbc;" horiz-adv-x="945" 
d="M214 114l323 561c17 30 33 53 62 53c34 0 59 -26 59 -56c0 -27 -19 -54 -31 -74l-323 -561c-17 -30 -33 -53 -62 -53c-34 0 -59 26 -59 56c0 27 19 54 31 74zM112 342v284h-35c-32 0 -48 23 -48 48s16 48 48 48h92c28 0 57 -15 57 -55v-325c0 -30 -21 -57 -57 -57
c-38 0 -57 27 -57 57zM727 41v43h-173c-40 0 -53 22 -53 41c0 21 13 39 20 50l155 222c19 32 42 39 80 39c55 0 85 -30 85 -73v-183h28c31 0 47 -20 47 -48s-16 -48 -47 -48h-28v-43c0 -28 -20 -47 -58 -47c-36 0 -56 19 -56 47zM727 180v127h-2l-85 -127h87z" />
    <glyph glyph-name="onesuperior" unicode="&#xb9;" horiz-adv-x="252" 
d="M72 342v284h-35c-32 0 -48 23 -48 48s16 48 48 48h92c28 0 57 -15 57 -55v-325c0 -30 -21 -57 -57 -57c-38 0 -57 27 -57 57z" />
    <glyph glyph-name="ordfeminine" unicode="&#xaa;" horiz-adv-x="372" 
d="M361 684v-249c0 -26 -19 -44 -54 -44c-24 0 -38 10 -47 35c-23 -24 -49 -35 -88 -35c-93 0 -161 75 -161 170c0 92 68 167 161 167c39 0 65 -10 88 -35c9 25 23 35 47 35c35 0 54 -17 54 -44zM253 559c0 37 -24 73 -67 73c-42 0 -67 -36 -67 -73c0 -36 25 -72 67 -72
c43 0 67 36 67 72z" />
    <glyph glyph-name="ordmasculine" unicode="&#xba;" horiz-adv-x="360" 
d="M354 561c0 -95 -72 -170 -174 -170c-106 0 -174 75 -174 170c0 92 68 167 174 167c105 0 174 -75 174 -167zM114 559c0 -36 24 -72 66 -72s66 36 66 72c0 37 -24 73 -66 73s-66 -36 -66 -73z" />
    <glyph glyph-name="oslash" unicode="&#xf8;" 
d="M178 216l157 164c-16 12 -35 18 -57 18c-69 0 -107 -60 -107 -132c0 -17 2 -34 7 -50zM378 315l-156 -164c16 -11 34 -17 56 -17c69 0 107 60 107 132c0 18 -2 35 -7 49zM8 40l56 58c-32 47 -49 105 -49 168c0 157 105 282 263 282c64 0 119 -20 163 -56l36 37
c25 26 33 34 50 34c20 0 36 -16 36 -37c0 -13 -4 -23 -15 -34l-55 -58c31 -47 48 -105 48 -168c0 -157 -105 -282 -263 -282c-65 0 -120 21 -163 56l-36 -37c-25 -26 -33 -34 -50 -34c-20 0 -36 16 -36 37c0 13 4 23 15 34z" />
    <glyph glyph-name="otilde" unicode="&#xf5;" 
d="M278 548c158 0 263 -125 263 -282s-105 -282 -263 -282s-263 125 -263 282s105 282 263 282zM278 398c-69 0 -107 -60 -107 -132s38 -132 107 -132s107 60 107 132s-38 132 -107 132zM65 657c0 53 46 109 101 109c75 0 137 -47 179 -47c40 0 49 47 88 47
c37 0 58 -30 58 -64c0 -53 -46 -109 -101 -109c-75 0 -137 47 -179 47c-40 0 -49 -47 -88 -47c-37 0 -58 30 -58 64z" />
    <glyph glyph-name="p" unicode="p" horiz-adv-x="574" 
d="M33 -141v598c0 45 32 81 78 81c38 0 62 -26 73 -50c35 43 75 60 134 60c136 0 241 -125 241 -282s-105 -282 -241 -282c-67 0 -101 21 -129 44v-169c0 -45 -32 -81 -78 -81s-78 36 -78 81zM296 134c69 0 107 60 107 132s-38 132 -107 132s-107 -60 -107 -132
s38 -132 107 -132z" />
    <glyph glyph-name="paragraph" unicode="&#xb6;" horiz-adv-x="620" 
d="M233 -120v483c-145 0 -223 64 -223 171c0 144 107 178 246 178h254c37 0 60 -24 60 -60v-772c0 -36 -23 -60 -60 -60s-60 24 -60 60v742h-97v-742c0 -36 -23 -60 -60 -60s-60 24 -60 60z" />
    <glyph glyph-name="parenleft" unicode="(" horiz-adv-x="259" 
d="M39 280c0 149 29 280 63 364c21 50 38 84 80 84c40 0 69 -24 69 -63c0 -26 -74 -181 -74 -385s74 -359 74 -385c0 -39 -29 -63 -69 -63c-42 0 -59 34 -80 84c-34 84 -63 215 -63 364z" />
    <glyph glyph-name="parenright" unicode=")" horiz-adv-x="259" 
d="M220 280c0 -149 -29 -280 -63 -364c-21 -50 -38 -84 -80 -84c-40 0 -69 24 -69 63c0 26 74 181 74 385s-74 359 -74 385c0 39 29 63 69 63c42 0 59 -34 80 -84c34 -84 63 -215 63 -364z" />
    <glyph glyph-name="percent" unicode="%" horiz-adv-x="685" 
d="M17 567c0 87 68 161 156 161s156 -75 156 -161s-68 -161 -156 -161c-91 0 -156 75 -156 161zM136 114l323 561c17 30 33 53 62 53c34 0 59 -26 59 -56c0 -27 -19 -54 -31 -74l-323 -561c-17 -30 -33 -53 -62 -53c-34 0 -59 26 -59 56c0 27 19 54 31 74zM131 567
c0 -25 16 -47 42 -47s42 22 42 47s-16 47 -42 47s-42 -22 -42 -47zM470 145c0 -25 16 -47 42 -47s42 22 42 47s-16 47 -42 47s-42 -22 -42 -47zM356 145c0 87 68 161 156 161s156 -75 156 -161s-68 -161 -156 -161c-91 0 -156 75 -156 161z" />
    <glyph glyph-name="period" unicode="." horiz-adv-x="278" 
d="M52 71c0 47 40 87 87 87s87 -40 87 -87c0 -48 -40 -87 -87 -87s-87 39 -87 87z" />
    <glyph glyph-name="periodcentered" unicode="&#xb7;" horiz-adv-x="278" 
d="M52 278c0 47 40 87 87 87s87 -40 87 -87c0 -48 -40 -87 -87 -87s-87 39 -87 87z" />
    <glyph glyph-name="perthousand" unicode="&#x2030;" horiz-adv-x="1037" 
d="M470 144c0 -25 21 -46 46 -46s46 21 46 46s-21 46 -46 46s-46 -21 -46 -46zM356 144c0 88 72 160 160 160s160 -72 160 -160s-72 -160 -160 -160s-160 72 -160 160zM705 144c0 88 72 160 160 160s160 -72 160 -160s-72 -160 -160 -160s-160 72 -160 160zM819 144
c0 -25 21 -46 46 -46s46 21 46 46s-21 46 -46 46s-46 -21 -46 -46zM126 568c0 -25 21 -46 46 -46s46 21 46 46s-21 46 -46 46s-46 -21 -46 -46zM12 568c0 88 72 160 160 160s160 -72 160 -160s-72 -160 -160 -160s-160 72 -160 160zM137 114l323 561c17 30 33 53 62 53
c34 0 59 -26 59 -56c0 -27 -19 -54 -31 -74l-323 -561c-17 -30 -33 -53 -62 -53c-34 0 -59 26 -59 56c0 27 19 54 31 74z" />
    <glyph glyph-name="plus" unicode="+" horiz-adv-x="600" 
d="M234 349v147c0 41 23 70 66 70s66 -29 66 -70v-147h147c42 0 70 -24 70 -66s-28 -66 -70 -66h-147v-147c0 -41 -23 -70 -66 -70s-66 29 -66 70v147h-147c-42 0 -70 30 -70 66c0 42 28 66 70 66h147z" />
    <glyph glyph-name="plusminus" unicode="&#xb1;" horiz-adv-x="600" 
d="M87 430h147v66c0 41 23 70 66 70s66 -29 66 -70v-66h147c42 0 70 -24 70 -66s-28 -66 -70 -66h-147v-66c0 -41 -23 -70 -66 -70s-66 29 -66 70v66h-147c-42 0 -70 24 -70 66s28 66 70 66zM87 132h426c42 0 70 -24 70 -66s-28 -66 -70 -66h-426c-42 0 -70 24 -70 66
s28 66 70 66z" />
    <glyph glyph-name="q" unicode="q" horiz-adv-x="574" 
d="M171 266c0 -72 38 -132 107 -132s107 60 107 132s-38 132 -107 132s-107 -60 -107 -132zM541 457v-598c0 -45 -32 -81 -78 -81s-78 36 -78 81v169c-28 -23 -62 -44 -129 -44c-136 0 -241 125 -241 282s105 282 241 282c59 0 99 -17 134 -60c15 30 36 50 73 50
c46 0 78 -36 78 -81z" />
    <glyph glyph-name="question" unicode="?" horiz-adv-x="500" 
d="M155 279v80c0 54 38 59 79 66c47 9 76 30 76 76c0 31 -27 65 -73 65c-89 0 -76 -90 -156 -90c-40 0 -72 35 -72 75c0 113 129 177 228 177c132 0 247 -82 247 -222c0 -128 -73 -187 -173 -207v-20c0 -46 -32 -78 -78 -78s-78 32 -78 78zM146 71c0 47 40 87 87 87
s87 -40 87 -87c0 -48 -40 -87 -87 -87s-87 39 -87 87z" />
    <glyph glyph-name="questiondown" unicode="&#xbf;" horiz-adv-x="500" 
d="M345 253v-80c0 -54 -38 -59 -79 -66c-47 -9 -76 -30 -76 -76c0 -31 27 -65 73 -65c89 0 76 90 156 90c40 0 72 -35 72 -75c0 -113 -129 -177 -228 -177c-132 0 -247 82 -247 222c0 128 73 187 173 207v20c0 46 32 78 78 78s78 -32 78 -78zM354 461c0 -47 -40 -87 -87 -87
s-87 40 -87 87c0 48 40 87 87 87s87 -39 87 -87z" />
    <glyph glyph-name="quotedbl" unicode="&#x22;" horiz-adv-x="481" 
d="M271 479v169c0 41 26 70 66 70s66 -29 66 -70v-169c0 -41 -26 -70 -66 -70s-66 29 -66 70zM78 479v169c0 41 26 70 66 70s66 -29 66 -70v-169c0 -41 -26 -70 -66 -70s-66 29 -66 70z" />
    <glyph glyph-name="quotedblbase" unicode="&#x201e;" horiz-adv-x="481" 
d="M238 -35l82 147c14 25 35 46 71 46c44 0 76 -27 76 -68c0 -21 -9 -37 -15 -48l-82 -147c-14 -25 -35 -46 -71 -46c-44 0 -76 27 -76 68c0 21 9 37 15 48zM16 -35l82 147c14 25 35 46 71 46c44 0 76 -27 76 -68c0 -21 -9 -37 -15 -48l-82 -147c-14 -25 -35 -46 -71 -46
c-44 0 -76 27 -76 68c0 21 9 37 15 48z" />
    <glyph glyph-name="quotedblleft" unicode="&#x201c;" horiz-adv-x="481" 
d="M16 525l82 147c14 25 35 46 71 46c44 0 76 -27 76 -68c0 -21 -9 -37 -15 -48l-82 -147c-14 -25 -35 -46 -71 -46c-44 0 -76 27 -76 68c0 21 9 37 15 48zM238 525l82 147c14 25 35 46 71 46c44 0 76 -27 76 -68c0 -21 -9 -37 -15 -48l-82 -147c-14 -25 -35 -46 -71 -46
c-44 0 -76 27 -76 68c0 21 9 37 15 48z" />
    <glyph glyph-name="quotedblright" unicode="&#x201d;" horiz-adv-x="481" 
d="M230 602l-82 -147c-14 -25 -35 -46 -71 -46c-44 0 -76 27 -76 68c0 21 9 37 15 48l82 147c14 25 35 46 71 46c44 0 76 -27 76 -68c0 -21 -9 -37 -15 -48zM452 602l-82 -147c-14 -25 -35 -46 -71 -46c-44 0 -76 27 -76 68c0 21 9 37 15 48l82 147c14 25 35 46 71 46
c44 0 76 -27 76 -68c0 -21 -9 -37 -15 -48z" />
    <glyph glyph-name="quoteleft" unicode="&#x2018;" horiz-adv-x="259" 
d="M16 525l82 147c14 25 35 46 71 46c44 0 76 -27 76 -68c0 -21 -9 -37 -15 -48l-82 -147c-14 -25 -35 -46 -71 -46c-44 0 -76 27 -76 68c0 21 9 37 15 48z" />
    <glyph glyph-name="quoteright" unicode="&#x2019;" horiz-adv-x="259" 
d="M230 602l-82 -147c-14 -25 -35 -46 -71 -46c-44 0 -76 27 -76 68c0 21 9 37 15 48l82 147c14 25 35 46 71 46c44 0 76 -27 76 -68c0 -21 -9 -37 -15 -48z" />
    <glyph glyph-name="quotesinglbase" unicode="&#x201a;" horiz-adv-x="259" 
d="M16 -35l82 147c14 25 35 46 71 46c44 0 76 -27 76 -68c0 -21 -9 -37 -15 -48l-82 -147c-14 -25 -35 -46 -71 -46c-44 0 -76 27 -76 68c0 21 9 37 15 48z" />
    <glyph glyph-name="quotesingle" unicode="'" horiz-adv-x="259" 
d="M64 479v169c0 41 26 70 66 70s66 -29 66 -70v-169c0 -41 -26 -70 -66 -70s-66 29 -66 70z" />
    <glyph glyph-name="r" unicode="r" horiz-adv-x="352" 
d="M36 75v382c0 45 32 81 78 81c42 0 68 -27 78 -50c26 31 64 60 108 60c40 0 80 -32 80 -81c0 -54 -41 -67 -98 -84c-68 -20 -90 -38 -90 -118v-190c0 -45 -32 -81 -78 -81s-78 36 -78 81z" />
    <glyph glyph-name="registered" unicode="&#xae;" horiz-adv-x="800" 
d="M28 356c0 236 179 372 372 372c192 0 372 -136 372 -372s-180 -372 -372 -372c-193 0 -372 136 -372 372zM142 356c0 -168 113 -282 258 -282c143 0 258 114 258 282s-115 282 -258 282c-145 0 -258 -114 -258 -282zM252 208v303c0 30 21 45 45 45h125
c90 0 144 -27 144 -120c0 -73 -46 -109 -92 -112l70 -94c9 -12 12 -21 12 -34c0 -9 -10 -33 -42 -33c-23 0 -33 9 -50 33l-92 128h-30v-116c0 -30 -20 -45 -45 -45c-24 0 -45 15 -45 45zM342 484v-88h75c29 0 53 7 53 44s-24 44 -53 44h-75z" />
    <glyph glyph-name="ring" unicode="&#x2da;" horiz-adv-x="222" 
d="M12 667c0 54 45 99 99 99s99 -45 99 -99s-45 -99 -99 -99s-99 45 -99 99zM66 667c0 -24 21 -45 45 -45s45 21 45 45s-21 45 -45 45s-45 -21 -45 -45z" />
    <glyph glyph-name="s" unicode="s" horiz-adv-x="426" 
d="M9 92c0 44 29 75 64 75c49 0 83 -45 150 -45c32 0 44 15 44 31c0 32 -34 35 -121 71c-80 33 -123 63 -123 147c0 89 76 177 201 177c63 0 180 -30 180 -111c0 -39 -28 -66 -65 -66c-31 0 -77 39 -125 39c-21 0 -41 -10 -41 -33c0 -61 244 -47 244 -218
c0 -110 -93 -175 -200 -175c-98 0 -208 39 -208 108z" />
    <glyph glyph-name="scaron" unicode="&#x161;" horiz-adv-x="426" 
d="M9 92c0 44 29 75 64 75c49 0 83 -45 150 -45c32 0 44 15 44 31c0 32 -34 35 -121 71c-80 33 -123 63 -123 147c0 89 76 177 201 177c63 0 180 -30 180 -111c0 -39 -28 -66 -65 -66c-31 0 -77 39 -125 39c-21 0 -41 -10 -41 -33c0 -61 244 -47 244 -218
c0 -110 -93 -175 -200 -175c-98 0 -208 39 -208 108zM213 732l96 44c18 8 33 15 54 15c27 0 53 -26 53 -60c0 -42 -14 -58 -53 -76l-88 -40c-16 -7 -47 -22 -62 -22s-46 15 -62 22l-88 40c-39 18 -53 34 -53 76c0 34 26 60 53 60c21 0 36 -7 54 -15z" />
    <glyph glyph-name="section" unicode="&#xa7;" horiz-adv-x="611" 
d="M58 283c0 72 35 118 96 154c-40 34 -51 63 -51 114c0 101 82 177 206 177c108 0 208 -62 208 -143c0 -31 -26 -67 -62 -67c-59 0 -80 90 -150 90c-28 0 -52 -17 -52 -44c0 -106 300 -112 300 -304c0 -78 -38 -131 -93 -160c30 -25 54 -62 54 -98
c0 -126 -93 -188 -209 -188c-109 0 -214 57 -214 141c0 32 23 65 65 65c57 0 65 -86 150 -86c30 0 58 13 58 43c0 97 -306 125 -306 306zM335 311l-98 58c-30 -18 -41 -38 -41 -64c0 -31 41 -54 81 -78l97 -58c30 18 41 38 41 64c0 31 -41 55 -80 78z" />
    <glyph glyph-name="semicolon" unicode=";" horiz-adv-x="278" 
d="M-3 -35l82 147c14 25 35 46 71 46c44 0 76 -27 76 -68c0 -21 -9 -37 -15 -48l-82 -147c-14 -25 -35 -46 -71 -46c-44 0 -76 27 -76 68c0 21 9 37 15 48zM52 383c0 47 40 87 87 87s87 -40 87 -87c0 -48 -40 -87 -87 -87s-87 39 -87 87z" />
    <glyph glyph-name="seven" unicode="7" horiz-adv-x="481" 
d="M89 144l199 418h-216c-50 0 -75 38 -75 75s25 75 75 75h328c53 0 84 -41 84 -77c0 -24 -10 -45 -23 -74l-227 -490c-18 -40 -35 -77 -91 -77c-51 0 -80 41 -80 73c0 26 14 52 26 77z" />
    <glyph glyph-name="six" unicode="6" horiz-adv-x="538" 
d="M10 485c0 -129 71 -245 141 -332c120 -149 146 -169 185 -169c54 0 78 51 78 78c0 53 -78 95 -151 202l2 2c15 -5 33 -8 63 -8c118 0 200 111 200 223c0 139 -106 247 -259 247c-158 0 -259 -99 -259 -243zM178 481c0 49 41 91 91 91s91 -42 91 -91s-41 -91 -91 -91
s-91 42 -91 91z" />
    <glyph glyph-name="slash" unicode="/" horiz-adv-x="463" 
d="M49 133l269 513c21 40 43 82 78 82c34 0 56 -20 56 -54c0 -22 -18 -57 -38 -95l-269 -513c-21 -40 -43 -82 -78 -82c-34 0 -56 20 -56 54c0 22 18 57 38 95z" />
    <glyph glyph-name="space" unicode=" " horiz-adv-x="278" 
 />
    <glyph glyph-name="sterling" unicode="&#xa3;" horiz-adv-x="630" 
d="M297 433h88c57 0 85 -38 85 -75s-28 -75 -85 -75h-66c0 -51 -5 -83 -39 -127h265c53 0 88 -32 88 -78s-35 -78 -88 -78h-369c-50 0 -96 22 -96 78c0 77 68 65 82 205h-63c-57 0 -85 38 -85 75s28 75 85 75h33c-11 28 -22 59 -22 87c0 128 104 208 264 208
c194 0 256 -118 256 -182c0 -40 -36 -74 -76 -74c-80 0 -48 112 -180 112c-50 0 -96 -26 -96 -81c0 -25 12 -51 19 -71v1z" />
    <glyph glyph-name="t" unicode="t" horiz-adv-x="333" 
d="M76 634v-313h-18c-50 0 -82 -22 -82 -72s32 -72 82 -72h18v-102c0 -45 32 -81 78 -81s78 36 78 81v102h43c50 0 82 22 82 72s-32 72 -82 72h-43v313c0 45 -32 81 -78 81s-78 -36 -78 -81z" />
    <glyph glyph-name="thorn" unicode="&#xfe;" horiz-adv-x="574" 
d="M33 -144v836c0 49 29 78 78 78s78 -29 78 -78v-188c28 23 62 44 129 44c136 0 241 -125 241 -282s-105 -282 -241 -282c-67 0 -101 21 -129 44v-172c0 -49 -29 -78 -78 -78s-78 29 -78 78zM296 134c69 0 107 60 107 132s-38 132 -107 132s-107 -60 -107 -132
s38 -132 107 -132z" />
    <glyph glyph-name="three" unicode="3" horiz-adv-x="519" 
d="M0 178c0 40 40 74 75 74c87 0 66 -112 178 -112c47 0 81 39 81 85c0 61 -49 77 -101 78c-33 1 -69 23 -69 76c0 44 21 59 85 74c37 8 61 26 61 66c0 36 -29 53 -61 53c-82 0 -86 -85 -160 -85c-41 0 -66 40 -66 74c0 101 129 167 224 167c119 0 219 -72 219 -195
c0 -51 -24 -103 -80 -145c76 -30 116 -99 116 -181c0 -129 -110 -223 -250 -223c-146 0 -252 98 -252 194z" />
    <glyph glyph-name="threequarters" unicode="&#xbe;" horiz-adv-x="945" 
d="M268 114l323 561c17 30 33 53 62 53c34 0 59 -26 59 -56c0 -27 -19 -54 -31 -74l-323 -561c-17 -30 -33 -53 -62 -53c-34 0 -59 26 -59 56c0 27 19 54 31 74zM44 628c0 66 84 100 150 100c73 0 142 -43 142 -117c0 -31 -16 -62 -56 -85c52 -20 78 -62 78 -109
c0 -81 -73 -132 -165 -132c-82 0 -164 53 -164 115c0 26 20 46 49 46c56 0 43 -59 116 -59c28 0 50 23 50 45c1 68 -108 15 -108 85c0 64 92 27 92 83c0 18 -19 26 -41 26c-50 0 -52 -43 -100 -43c-27 0 -43 24 -43 45zM727 41v43h-173c-40 0 -53 22 -53 41
c0 21 13 39 20 50l155 222c19 27 42 34 80 34c55 0 85 -30 85 -73v-178h28c31 0 47 -20 47 -48s-16 -48 -47 -48h-28v-43c0 -28 -20 -47 -58 -47c-36 0 -56 19 -56 47zM727 180v127h-2l-85 -127h87z" />
    <glyph glyph-name="threesuperior" unicode="&#xb3;" horiz-adv-x="373" 
d="M37 628c0 66 84 100 150 100c73 0 142 -43 142 -117c0 -31 -16 -62 -56 -85c52 -20 78 -62 78 -109c0 -81 -73 -132 -165 -132c-82 0 -164 53 -164 115c0 26 20 46 49 46c56 0 43 -59 116 -59c28 0 50 23 50 45c1 68 -108 15 -108 85c0 64 92 27 92 83
c0 18 -19 26 -41 26c-50 0 -52 -43 -100 -43c-27 0 -43 24 -43 45z" />
    <glyph glyph-name="tilde" unicode="&#x2dc;" horiz-adv-x="222" 
d="M-102 657c0 53 46 109 101 109c75 0 137 -47 179 -47c40 0 49 47 88 47c37 0 58 -30 58 -64c0 -53 -46 -109 -101 -109c-75 0 -137 47 -179 47c-40 0 -49 -47 -88 -47c-37 0 -58 30 -58 64z" />
    <glyph glyph-name="trademark" unicode="&#x2122;" horiz-adv-x="1000" 
d="M273 622v-266c0 -53 -42 -65 -60 -65s-60 12 -60 65v266h-63c-36 0 -49 25 -49 45s13 45 49 45h247c36 0 48 -25 48 -45s-12 -45 -48 -45h-64zM837 542l-73 -198c-12 -35 -32 -53 -60 -53s-48 18 -60 53l-73 198h-2v-186c0 -53 -42 -65 -60 -65s-60 12 -60 65v272
c0 72 49 90 83 90c52 0 87 -24 107 -77l65 -167l65 167c20 53 55 77 107 77c34 0 83 -18 83 -90v-272c0 -53 -42 -65 -60 -65s-60 12 -60 65v186h-2z" />
    <glyph glyph-name="two" unicode="2" horiz-adv-x="500" 
d="M249 578h170c50 0 75 38 75 75s-25 75 -75 75h-327c-54 0 -92 -29 -92 -71c0 -60 91 -133 123 -169c41 -47 181 -193 181 -265c0 -48 -23 -67 -62 -67c-107 0 -53 151 -155 151c-52 0 -77 -41 -77 -78c0 -122 101 -229 242 -229c124 0 226 85 226 216
c0 143 -144 257 -229 362z" />
    <glyph glyph-name="twosuperior" unicode="&#xb2;" horiz-adv-x="361" 
d="M187 387h110c32 0 48 -23 48 -48s-16 -48 -48 -48h-220c-31 0 -61 17 -61 42c1 61 205 178 205 257c0 25 -25 36 -44 36c-65 0 -30 -82 -100 -82c-37 0 -53 24 -53 46c0 74 65 138 160 138c84 0 151 -51 151 -130c0 -86 -94 -154 -148 -211z" />
    <glyph glyph-name="u" unicode="u" 
d="M520 457v-265c0 -144 -112 -208 -242 -208s-242 64 -242 208v265c0 45 32 81 78 81s78 -36 78 -81v-243c0 -59 45 -86 86 -86s86 27 86 86v243c0 45 32 81 78 81s78 -36 78 -81z" />
    <glyph glyph-name="uacute" unicode="&#xfa;" 
d="M520 457v-265c0 -144 -112 -208 -242 -208s-242 64 -242 208v265c0 45 32 81 78 81s78 -36 78 -81v-243c0 -59 45 -86 86 -86s86 27 86 86v243c0 45 32 81 78 81s78 -36 78 -81zM420 667l-150 -65c-9 -4 -26 -9 -41 -9c-40 0 -65 31 -65 69c0 27 14 46 37 55l150 65
c9 4 26 9 41 9c40 0 65 -31 65 -69c0 -27 -14 -46 -37 -55z" />
    <glyph glyph-name="ucircumflex" unicode="&#xfb;" 
d="M520 457v-265c0 -144 -112 -208 -242 -208s-242 64 -242 208v265c0 45 32 81 78 81s78 -36 78 -81v-243c0 -59 45 -86 86 -86s86 27 86 86v243c0 45 32 81 78 81s78 -36 78 -81zM278 652l-96 -44c-18 -8 -33 -15 -54 -15c-27 0 -53 26 -53 60c0 42 14 58 53 76l88 40
c16 7 47 22 62 22s46 -15 62 -22l88 -40c39 -18 53 -34 53 -76c0 -34 -26 -60 -53 -60c-21 0 -36 7 -54 15z" />
    <glyph glyph-name="udieresis" unicode="&#xfc;" 
d="M520 457v-265c0 -144 -112 -208 -242 -208s-242 64 -242 208v265c0 45 32 81 78 81s78 -36 78 -81v-243c0 -59 45 -86 86 -86s86 27 86 86v243c0 45 32 81 78 81s78 -36 78 -81zM394 770c43 0 78 -35 78 -78s-35 -78 -78 -78s-78 35 -78 78s35 78 78 78zM162 770
c43 0 78 -35 78 -78s-35 -78 -78 -78s-78 35 -78 78s35 78 78 78z" />
    <glyph glyph-name="ugrave" unicode="&#xf9;" 
d="M520 457v-265c0 -144 -112 -208 -242 -208s-242 64 -242 208v265c0 45 32 81 78 81s78 -36 78 -81v-243c0 -59 45 -86 86 -86s86 27 86 86v243c0 45 32 81 78 81s78 -36 78 -81zM205 782l150 -65c23 -9 37 -28 37 -55c0 -38 -25 -69 -65 -69c-15 0 -32 5 -41 9l-150 65
c-23 9 -37 28 -37 55c0 38 25 69 65 69c15 0 32 -5 41 -9z" />
    <glyph glyph-name="underscore" unicode="_" horiz-adv-x="500" 
d="M500 -125h-500c-16 0 -29 9 -29 25s13 25 29 25h500c16 0 29 -9 29 -25s-13 -25 -29 -25z" />
    <glyph glyph-name="v" unicode="v" horiz-adv-x="464" 
d="M146 57l-127 316c-14 35 -24 63 -24 87c0 42 35 78 78 78c31 0 58 -10 75 -59l83 -236h2l83 236c17 49 44 59 75 59c43 0 78 -36 78 -78c0 -24 -10 -52 -24 -87l-127 -316c-15 -37 -42 -63 -86 -63s-71 26 -86 63z" />
    <glyph glyph-name="w" unicode="w" horiz-adv-x="760" 
d="M128 461l-109 -305c-13 -35 -22 -59 -24 -87c0 -41 27 -75 79 -75c37 0 64 20 74 55l76 253h2l70 -219c13 -41 28 -89 84 -89s71 48 84 89l70 219h2l76 -253c10 -35 37 -55 74 -55c52 0 79 34 79 75c-2 28 -11 52 -24 87l-109 305c-18 51 -44 77 -97 77
c-56 0 -75 -29 -93 -82l-61 -184h-2l-61 184c-18 53 -37 82 -93 82c-53 0 -79 -26 -97 -77z" />
    <glyph glyph-name="x" unicode="x" horiz-adv-x="500" 
d="M23 139l133 141l-81 86c-45 48 -60 63 -60 91c0 50 38 81 75 81c36 0 54 -9 77 -38l83 -103l83 103c23 29 41 38 77 38c37 0 75 -31 75 -81c0 -28 -15 -43 -60 -91l-81 -86l133 -141c13 -15 31 -34 31 -67c0 -48 -37 -78 -80 -78c-33 0 -51 19 -69 40l-109 127l-109 -127
c-18 -21 -36 -40 -69 -40c-43 0 -80 30 -80 78c0 33 18 52 31 67z" />
    <glyph glyph-name="y" unicode="y" horiz-adv-x="500" 
d="M114 -66l52 117l-133 317c-18 42 -33 79 -33 97c0 46 37 73 76 73c38 0 65 -20 80 -59l92 -238l87 212c20 48 42 85 85 85c48 0 80 -31 80 -79c0 -23 -11 -50 -19 -68l-231 -539c-18 -41 -31 -74 -85 -74c-56 0 -77 44 -77 70c0 27 8 45 26 86z" />
    <glyph glyph-name="yacute" unicode="&#xfd;" horiz-adv-x="500" 
d="M114 -66l52 117l-133 317c-18 42 -33 79 -33 97c0 46 37 73 76 73c38 0 65 -20 80 -59l92 -238l87 212c20 48 42 85 85 85c48 0 80 -31 80 -79c0 -23 -11 -50 -19 -68l-231 -539c-18 -41 -31 -74 -85 -74c-56 0 -77 44 -77 70c0 27 8 45 26 86zM392 667l-150 -65
c-9 -4 -26 -9 -41 -9c-40 0 -65 31 -65 69c0 27 14 46 37 55l150 65c9 4 26 9 41 9c40 0 65 -31 65 -69c0 -27 -14 -46 -37 -55z" />
    <glyph glyph-name="ydieresis" unicode="&#xff;" horiz-adv-x="500" 
d="M114 -66l52 117l-133 317c-18 42 -33 79 -33 97c0 46 37 73 76 73c38 0 65 -20 80 -59l92 -238l87 212c20 48 42 85 85 85c48 0 80 -31 80 -79c0 -23 -11 -50 -19 -68l-231 -539c-18 -41 -31 -74 -85 -74c-56 0 -77 44 -77 70c0 27 8 45 26 86zM366 770
c43 0 78 -35 78 -78s-35 -78 -78 -78s-78 35 -78 78s35 78 78 78zM134 770c43 0 78 -35 78 -78s-35 -78 -78 -78s-78 35 -78 78s35 78 78 78z" />
    <glyph glyph-name="yen" unicode="&#xa5;" horiz-adv-x="630" 
d="M396 182v-102c0 -57 -34 -86 -81 -86s-81 29 -81 86v102h-144c-25 0 -48 23 -48 49c0 25 23 47 48 47h144v56h-144c-25 0 -48 23 -48 49c0 25 23 47 48 47h76l-72 92c-51 71 -67 91 -67 124c0 43 38 72 86 72c44 0 65 -31 82 -55l120 -171l120 171c17 24 38 55 82 55
c48 0 86 -29 86 -72c0 -33 -16 -53 -67 -124l-72 -92h76c25 0 48 -22 48 -47c0 -26 -23 -49 -48 -49h-144v-56h144c25 0 48 -22 48 -47c0 -26 -23 -49 -48 -49h-144z" />
    <glyph glyph-name="z" unicode="z" horiz-adv-x="463" 
d="M19 113l200 275h-137c-50 0 -82 22 -82 72s32 72 82 72h300c29 0 44 -4 59 -19c10 -10 14 -23 14 -37s-7 -27 -20 -45l-214 -287h165c50 0 82 -22 82 -72s-32 -72 -82 -72h-316c-29 0 -38 3 -52 11c-20 13 -23 34 -23 44c0 12 1 26 24 58z" />
    <glyph glyph-name="zcaron" unicode="&#x17e;" horiz-adv-x="463" 
d="M19 113l200 275h-137c-50 0 -82 22 -82 72s32 72 82 72h300c29 0 44 -4 59 -19c10 -10 14 -23 14 -37s-7 -27 -20 -45l-214 -287h165c50 0 82 -22 82 -72s-32 -72 -82 -72h-316c-29 0 -38 3 -52 11c-20 13 -23 34 -23 44c0 12 1 26 24 58zM232 732l96 44
c18 8 33 15 54 15c27 0 53 -26 53 -60c0 -42 -14 -58 -53 -76l-88 -40c-16 -7 -47 -22 -62 -22s-46 15 -62 22l-88 40c-39 18 -53 34 -53 76c0 34 26 60 53 60c21 0 36 -7 54 -15z" />
    <glyph glyph-name="zero" unicode="0" horiz-adv-x="630" 
d="M17 356c0 -187 93 -372 298 -372s298 185 298 372s-93 372 -298 372s-298 -185 -298 -372zM185 356c0 89 29 216 130 216s130 -127 130 -216s-29 -216 -130 -216s-130 127 -130 216z" />
    </font>
</defs>
</svg>
